<svg xmlns="http://www.w3.org/2000/svg" viewBox="0 0 784.41 785.2"><defs><style>.cls-1{fill:#9e7d56;}.cls-2{fill:#281e13;}.cls-3{fill:#c69c6e;}.cls-4{fill:#181818;}.cls-5{fill:#af8556;}.cls-6{fill:#c4935c;}.cls-7{fill:#191819;}.cls-8{fill:#1e1c1a;}.cls-9{fill:#c49864;}.cls-10{fill:#1b1a1a;}.cls-11{fill:#291e13;}.cls-12{fill:#402724;}.cls-13{fill:#c39460;}.cls-14{fill:#c3935c;}.cls-15{fill:#c09460;}.cls-16{fill:#ad8355;}.cls-17{fill:#9c7c55;}.cls-18{fill:#c59867;}.cls-19{fill:#27221f;}.cls-20{fill:#735b40;}.cls-21{fill:#382a26;}.cls-22{fill:#c59a6b;}.cls-23{fill:#bf915c;}.cls-24{fill:#191818;}.cls-25{fill:#be9161;}</style></defs><g id="Layer_2" data-name="Layer 2"><g id="Layer_1-2" data-name="Layer 1"><path class="cls-1" d="M264,0h1.89a1.62,1.62,0,0,0,1.35.61l5.58,0a24,24,0,0,1,2.82.15c2.28.39,4.56.77,6.8,1.32a86.37,86.37,0,0,1,27,11.76,5.18,5.18,0,0,0,.69.64c2.2,1.42,4.35,2.91,6.43,4.5.92.7,1.7,1.59,2.67,2.2a17.14,17.14,0,0,1,2.65,2.22,11.06,11.06,0,0,0,2.41,2,5,5,0,0,1,1.2,1c1.57,1.68,3.45,3.08,4.63,5.12a6.89,6.89,0,0,0,1.07,1.16,24.83,24.83,0,0,1,4.13,4.73,65.77,65.77,0,0,1,5.42,6.92c1.79,2.32,3.31,4.85,4.91,7.31,2,3.08,3.51,6.45,5.49,9.54.28.44.46.94.71,1.41,1.17,2.23,2.07,4.59,3.17,6.85,2.17,4.44,3.76,9.11,5.47,13.72,1.23,3.34,3,10,4.12,14.81.48,2,1,4.06,1.37,6.11a28.58,28.58,0,0,1,1,6.5,2.25,2.25,0,0,0,.22.91,7,7,0,0,1,.38,2.48,6.09,6.09,0,0,0,.24,1.86,9.66,9.66,0,0,1,.38,3.11,10,10,0,0,0,.16,2.81,15.79,15.79,0,0,1,.47,4.68c0,1.88-.19,3.79.53,5.61a1.79,1.79,0,0,1,.07.62c0,1.05-.05,2.11.06,3.15s.52,2,.54,3.08a19.37,19.37,0,0,0,.65,5,2.13,2.13,0,0,1,0,.62c-.95,0-1.89.1-2.84.1q-30.93,0-61.87,0c-.94,0-1.89-.07-2.83-.1A13.3,13.3,0,0,0,303,143c-.65-2.42-1.35-4.83-2-7.26-.77-2.82-1.54-5.65-2.25-8.49q-1.6-6.39-3.42-12.73c-.93-3.21-1.74-6.47-2.7-9.68-1.27-4.2-2.45-8.44-3.62-12.67-.86-3.13-1.58-6.3-2.73-9.35a8.57,8.57,0,0,1-.16-.93,68.12,68.12,0,0,0-2.68-8.69.74.74,0,0,0-1.09-.13,1.33,1.33,0,0,0-.53,1.09,5.66,5.66,0,0,0,.19.91c.83,3.14,1.68,6.27,2.49,9.41.29,1.11.52,2.23.72,3.36.42,2.38,1.58,4.57,1.7,7a30.33,30.33,0,0,1,1.34,5.16c.53,2.66,1.28,5.28,2,7.91a67.78,67.78,0,0,0,2,7.26,61.7,61.7,0,0,0,1.5,6.73c.39,1.74.86,3.45,1.27,5.18s.8,3.68,1.26,5.5c.33,1.32.92,2.59,1.13,3.92.34,2.17.86,4.3,1.32,6.44a8.29,8.29,0,0,1,.06,1.58c-1.05,0-2.1.13-3.14.13q-9.46,0-18.93,0c-.73,0-1.47,0-2.2,0a6.6,6.6,0,0,0-3,.7,5.93,5.93,0,0,0-3.73,5.39c0,.84,0,1.68,0,2.52V294.78c0,1,.06,2.09.09,3.14a2.89,2.89,0,0,1-2,1.88,66.32,66.32,0,0,0-18.64,11.64,67.55,67.55,0,0,0-11.69,13.16,140.05,140.05,0,0,0-7.17,12.23,3.87,3.87,0,0,0-.25.9,1.13,1.13,0,0,0-.58,1.23l0,.08a1,1,0,0,0-.54,1.17,1.41,1.41,0,0,0-.16.6,2.74,2.74,0,0,0-1,1.58c-.88,2.58-1.85,5.15-2.54,7.78a41.27,41.27,0,0,0-1.54,8c0,.52-.16,1-.23,1.56a21.14,21.14,0,0,0-.3,2.49c0,3.57,0,7.15,0,10.72a5.82,5.82,0,0,0,.1,1.57c.58,2.14.58,4.36,1,6.53a69.75,69.75,0,0,0,4.44,14.42A67.61,67.61,0,0,0,239.28,415a2.47,2.47,0,0,1,.79,1.33c-.21.23-.38.61-.62.66a26.59,26.59,0,0,1-4.88.81c-3.1,0-6.24.49-9.29-.47a1.45,1.45,0,0,0-.62-.06c-1.29.17-2.42-.57-3.66-.63a10.44,10.44,0,0,1-3.59-1,2.78,2.78,0,0,0-2.66.3l-.15-1-1.92-.93-7.32-3.67a3.94,3.94,0,0,1-2.05-2.26A32.87,32.87,0,0,0,195.77,397c-1.75-1.79-3.77-3.33-5.7-4.95-.72-.61-1.49-1.15-2.26-1.71a2.07,2.07,0,0,0-1.5-.3L192,378.77c.38-.75.76-1.5,1.16-2.24a1.59,1.59,0,0,1,1.5-.94c1.26,0,2.52-.08,3.77,0a11.3,11.3,0,0,0,4.31-.72c.39-.14.77-.33,1.17-.44a6.32,6.32,0,0,0,4.19-3.95,16.89,16.89,0,0,0,.93-3.94,5.5,5.5,0,0,0-.14-2.49,9.63,9.63,0,0,1-.41-3.72,25,25,0,0,0-.87-7.12,102.26,102.26,0,0,0-5.15-16.1,2.79,2.79,0,0,0-1.12-1.48c1.43-.87,2.9-1.69,4.26-2.64a10.33,10.33,0,0,0,4.2-6.42,12.41,12.41,0,0,0,.07-5,14.29,14.29,0,0,0-2.24-5.48,9,9,0,0,0-3.7-3.32,1.07,1.07,0,0,0-1.41.25c-.67.92-1.4.68-2.2.27-.15-.08-.4,0-.73.06a16.47,16.47,0,0,1-5.25,4.26,29.67,29.67,0,0,1-10.51,3,7.93,7.93,0,0,1,.4-2.76c1-2.95,2-5.94,3-8.91.26-.79.54-1.58.85-2.35,1.19-3,2.36-6,3.39-9.08.76-2.27,1.44-4.57,2.13-6.86,1-3.19,1.63-6.45,2.57-9.65a3.32,3.32,0,0,0-.28-2.1,1.36,1.36,0,0,0,1-1.09c.16-.71.24-1.44.37-2.16A100.57,100.57,0,0,0,199,263.56c0-.62.19-1.24.27-1.86a30.93,30.93,0,0,0,.19-7.81,1.84,1.84,0,0,0,.7-1.34c0-2.07,0-4.15,0-6.22a1.18,1.18,0,0,0-.13-.6,1.48,1.48,0,0,0-.62-.62,3.53,3.53,0,0,0-1.22-.17l-12.46.05-.68-.75,13.52.09a4.2,4.2,0,0,0,.62-.08,1,1,0,0,0,.82-.83,56.18,56.18,0,0,0-.07-5.95c-.17-1.67-.33-3.34-.36-5,0-2.94-.69-5.82-.83-8.75a30.51,30.51,0,0,0-.56-4c-.2-1.13-.48-2.25-.75-3.36,0-.18-.26-.32-.39-.48l-.12-3.77a64.54,64.54,0,0,1-1.59-6.7c-.39-1.53-1-3-1.29-4.53a81.73,81.73,0,0,0-2.81-9.63,55.86,55.86,0,0,0-3.33-8.82,14.21,14.21,0,0,1-.62-1.77c-.37-1-.78-2-1.12-2.93-1.06-3.07-2.38-6-3.32-9.15-.34-1.1-.63-2.22-.93-3.32-.49-1.82-1.38-3.52-1.41-5.46a1.72,1.72,0,0,0-.18-.6c-1.25-3.13-1.58-6.48-2.21-9.76a25.69,25.69,0,0,1-.79-4.94,6.38,6.38,0,0,1-.5-3.08c.07-1.09-.55-2-.59-3.07a24,24,0,0,0-.57-5,18.78,18.78,0,0,1-.12-3.76,10.27,10.27,0,0,0-.26-2.49A10.57,10.57,0,0,1,175,124c0-3.88,0-7.77,0-11.65a11.94,11.94,0,0,1,.46-4.36,5.76,5.76,0,0,0,.14-1.87c0-1.15,0-2.31,0-3.46a6.07,6.07,0,0,1,.2-1.87,9.33,9.33,0,0,0,.42-3.1,5.72,5.72,0,0,1,.18-1.86c.64-1.69.27-3.57,1-5.22a10.35,10.35,0,0,1,.62-3.7,12.6,12.6,0,0,1,.81-4c.95-3.64,1.63-7.35,2.93-10.89a5.7,5.7,0,0,0,.16-1.25c.83-2.26,1.65-4.52,2.5-6.78a118.52,118.52,0,0,1,16.41-30A90.46,90.46,0,0,1,226,11a75,75,0,0,1,24.8-9.6,22.17,22.17,0,0,1,6.23-.76l5.58,0A1.66,1.66,0,0,0,264,0Z"/><path class="cls-2" d="M781.22,373.2a13.44,13.44,0,0,1,2.89,3c0,.05.2,0,.3,0V777c-.18.07-.44.09-.52.22-2,3.26-5.16,4.45-8.76,4.79-.94.09-1.89,0-2.84,0L706,781.91q-12.62,0-25.24-.07l-31.86-.1L618,781.63l-35.33-.08-23,0c-1.26,0-2.53,0-3.78-.11a7.54,7.54,0,0,1-4.61-1.76c1.47,0,2.94-.14,4.41-.14h177c4.75,0,3.38.55,7.06-3a3.61,3.61,0,0,0,1.06-2.83c0-4.1,0-8.2,0-12.3,0-1.16.06-2.32.1-3.47.73.06,1.46.18,2.19.18q8,0,16.08.05c.52,0,1,0,1.57-.06a1.09,1.09,0,0,0,1-1c.11-2.62.19-5.24.31-7.86.21-4.3.15-8.61.2-12.92a3,3,0,0,0-.14-.93.77.77,0,0,0-.42-.43,8.18,8.18,0,0,0-1.56-.16q-8.83,0-17.66,0a13.8,13.8,0,0,0-1.56.18q0-9.6,0-19.2a4.31,4.31,0,0,0,2.44.5l16.72.06c.52,0,1.05,0,1.58-.06a1.27,1.27,0,0,0,1.08-1c0-.42.08-.84.09-1.25q.12-9.63.23-19.24c0-.42,0-.83-.07-1.25a1,1,0,0,0-.84-.8c-.74,0-1.47-.08-2.21-.08-4.31,0-8.62-.06-12.93,0-2,0-4,.08-6,.13-.05-.84-.14-1.67-.14-2.5q0-6.9,0-13.79c0-.83.09-1.67.14-2.5.73,0,1.46.15,2.2.15q9.15,0,18.3,0a4.32,4.32,0,0,0,1.25-.13,1.1,1.1,0,0,0,.65-.58,3.91,3.91,0,0,0,.16-1.24c0-2.1,0-4.2.08-6.3.08-3.58,0-7.15.31-10.72a33.88,33.88,0,0,0,0-3.77,1.07,1.07,0,0,0-.82-.85c-.94-.07-1.89-.18-2.83-.18-5.68,0-11.36,0-17,0-.74,0-1.47.08-2.21.12a10.65,10.65,0,0,1-.15-1.25q0-8.32,0-16.64c0-.31.07-.62.1-.94a10.65,10.65,0,0,0,1.25.15q10.23,0,20.46,0c.2,0,.41,0,.62-.05a1,1,0,0,0,.87-.77c.05-.52.1-1,.12-1.56,0-2.09,0-4.2.14-6.29.36-4.39.23-8.79.34-13.19,0-.32,0-.63-.06-.94a1,1,0,0,0-.78-.86c-.52,0-1-.1-1.56-.1q-9.76,0-19.52,0c-.63,0-1.25.08-1.88.13,0-.52-.13-1-.12-1.55q0-8.85,0-17.7a4.89,4.89,0,0,0,2.74.49l13.22.06q3.31,0,6.61,0c1.31,0,1.7-.4,1.78-1.67,0-.52.06-1,.06-1.57q.12-8.8.21-17.61c0-.63,0-1.26,0-1.89a1,1,0,0,0-1-1c-.52,0-1-.06-1.57-.06-6.51,0-13,0-19.52,0-.83,0-1.67.12-2.5.19,0-1.14-.09-2.28-.1-3.42q0-6.06,0-12.12c0-1.24.06-2.48.09-3.73.73.07,1.46.19,2.19.19h20.5c.52,0,1-.06,1.57-.1a1,1,0,0,0,.78-.86c0-.73.08-1.46.1-2.2.15-6.5,0-13,.38-19.52a1.63,1.63,0,0,0,0-.31,1.18,1.18,0,0,0-.84-.83c-.63,0-1.26-.08-1.89-.08H743.5c-.84,0-1.68.08-2.51.13a10.7,10.7,0,0,1-.14-1.24q0-9,0-18.05a20.36,20.36,0,0,0,2.19.24q10.71,0,21.43,0a6.25,6.25,0,0,0,1.56-.14,1,1,0,0,0,.59-.63,7.31,7.31,0,0,0,.13-1.56c.05-2.2,0-4.42.13-6.61.33-4,.26-8,.35-12,0-.63,0-1.26,0-1.89a1.09,1.09,0,0,0-1-1.06c-.74,0-1.47-.07-2.21-.07H744.24a13.05,13.05,0,0,0-1.88,0,8,8,0,0,0-1.48.49q0-9.89,0-19.76a8,8,0,0,0,2.8.27h21.4c.52,0,1,0,1.57-.05a1.09,1.09,0,0,0,1-1c.06-.94.12-1.88.14-2.82q.12-8.18.2-16.35c0-.94,0-1.88,0-2.82a1,1,0,0,0-.79-.85c-.73,0-1.46-.09-2.19-.09H743.91A13,13,0,0,0,742,437a5.16,5.16,0,0,0-1.15.47q0-9.3,0-18.59c0-.42.06-.84.09-1.26,1,.06,2.1.17,3.14.17,7,0,14.09,0,21.13,0,.63,0,1.26,0,1.89,0,1,0,1.38-.4,1.43-1.29,0-.31,0-.62,0-.94.15-6.93,0-13.86.4-20.78a.45.45,0,0,0-.07-.31c-.19-.22-.37-.53-.62-.62a3.91,3.91,0,0,0-1.24-.15q-12,0-24,0a17.76,17.76,0,0,0-2.18.26c0-3.36-.07-6.71-.06-10.07,0-4.3,0-8.6.06-12.9.62.08,1.24.19,1.87.22.84,0,1.68,0,2.52,0,9.25,0,18.5,0,27.75,0a15.53,15.53,0,0,1,7,1.53C780.43,372.93,780.83,373.05,781.22,373.2Z"/><path class="cls-3" d="M1.13,436.38,0,436.15V419.74c.43.25.81.05,1.2-.11q0,8.07,0,16.13A4.41,4.41,0,0,1,1.13,436.38Z"/><path class="cls-3" d="M153.14,784.48l.33.72H142.1c.09-.24.17-.47.26-.7Z"/><path class="cls-3" d="M257.06.64V0H264a1.66,1.66,0,0,1-1.36.61Z"/><path class="cls-3" d="M272.84,0l0,.65-5.58,0A1.62,1.62,0,0,1,265.89,0Z"/><path class="cls-4" d="M551.27,779.66c-1.47,0-2.94-.11-4.41-.11H277.06c-1.05,0-2.11,0-3.16,0a6.34,6.34,0,0,1-6.29-5.86,9.77,9.77,0,0,0-.28-2.8,9.33,9.33,0,0,0,.3-3.75q0-59,0-118c0-1.16-.06-2.31-.09-3.47,0-.22,0-.44,0-.67,0-3.87.05-7.75.05-11.62a7.55,7.55,0,0,0-.31-1.53,2.08,2.08,0,0,0,.06-1.91,7,7,0,0,0,.3-3.09q0-11.16,0-22.31,0-9.74,0-19.48a8.6,8.6,0,0,0-.25-3.11,11.82,11.82,0,0,0,.27-4.06q0-60.55,0-121.09c0-1.05,0-2.1,0-3.15a3.26,3.26,0,0,1,.68-1.74,21.25,21.25,0,0,0,5.12-3.25c1-.62,1.91-1.26,2.89-1.85a9.93,9.93,0,0,1,7.2-1.48c1.44.29,2.89.48,4.34.71,2.78.46,5.57.94,8.36,1.36a19.45,19.45,0,0,0,4.7.19,9,9,0,0,0,2.44-.57,11.3,11.3,0,0,0,7.28-8.76c.23-1.13.46-2.25.7-3.38a10.15,10.15,0,0,0,3.9-1.05,71,71,0,0,0,8-3.63,5.91,5.91,0,0,1,2.31-.94c.06,1.47.16,2.94.16,4.41q0,118.66,0,237.32c0,1.37,0,2.74,0,4.1a18.66,18.66,0,0,0,1.82,8.24,20.87,20.87,0,0,0,11.84,11.17,26.41,26.41,0,0,0,9.58,1.58H658.46a34.07,34.07,0,0,0,5.33-.4A20.81,20.81,0,0,0,677.9,687a21.8,21.8,0,0,0,4.1-12.69c0-1.06,0-2.11,0-3.16V265c0-1.05,0-2.1,0-3.15a21.84,21.84,0,0,0-3-11.12A20.67,20.67,0,0,0,666.29,241a28.92,28.92,0,0,0-7.8-1H349a32.61,32.61,0,0,0-5,.36,20.92,20.92,0,0,0-14.19,8.56,19.53,19.53,0,0,0-4,11.41q0,1.74,0,3.48,0,16.88,0,33.76c0,1.15-.13,2.31-.19,3.46a10.46,10.46,0,0,1-4.17-1.28,32.87,32.87,0,0,0-4.67-1.85c-1.29-.42-2.58-.88-3.88-1.27a50.72,50.72,0,0,0-8.55-1.92c-.41-.05-.8-.22-1.22-.29a11.65,11.65,0,0,0-1.85-.28,21.48,21.48,0,0,1-3.77-.09,11.67,11.67,0,0,0-4,0,4.07,4.07,0,0,1-1.53-.23,2.88,2.88,0,0,0-1.54,0,12,12,0,0,1-2.17.26c-1.15,0-2.32-.07-3.46,0s-2.47.39-3.7.63c-1.53.31-3.06.65-4.58,1a19.34,19.34,0,0,1-3.64,1c-.78.53-1.91.29-2.52,1.17h-2.57c0-1.05-.09-2.1-.09-3.14V153.26c0-.84,0-1.68,0-2.52a5.93,5.93,0,0,1,3.73-5.39,6.6,6.6,0,0,1,3-.7c.73,0,1.47,0,2.2,0q9.46,0,18.93,0c1,0,2.09-.09,3.14-.13a14.07,14.07,0,0,0,4.44,0c.94,0,1.89.1,2.83.1q30.94,0,61.87,0c.95,0,1.89-.06,2.84-.1s2.1.13,3.15.13H694.23c.63,0,1.25-.07,1.88-.1,1.58,0,3.16,0,4.73,0H732.4c.84,0,1.69,0,2.52,0a6.45,6.45,0,0,1,6.06,5.81c0,1,.08,2.1.08,3.15v60.55c0,1.16.06,2.31.1,3.47a14.62,14.62,0,0,0-.21,4.07q0,72.76,0,145.52c0,1.26,0,2.52,0,3.78,0,4.3-.06,8.6-.06,12.9,0,3.36,0,6.71.06,10.07,0,.84,0,1.68.05,2.52q0,10.58,0,21.14c0,.42-.09.84-.09,1.26q0,9.3,0,18.59,0,11.58,0,23.17,0,9.87,0,19.76,0,11.58,0,23.15,0,9,0,18.05c0,.41.09.82.13,1.24,0,1.25,0,2.51,0,3.77q0,9.9,0,19.81c0,1.25-.08,2.49-.09,3.73q0,6.06,0,12.12c0,1.14.06,2.28.1,3.42,0,3.85,0,7.7,0,11.55s0,7.69-.05,11.54q0,8.85,0,17.7c0,.52.08,1,.12,1.55v23.52c0,.32-.1.63-.1.94q0,8.32,0,16.64a10.65,10.65,0,0,0,.15,1.25l0,23.45c-.05.83-.14,1.67-.14,2.5q0,6.9,0,13.79c0,.83.09,1.66.14,2.5q0,6.15,0,12.3c0,3.58,0,7.16-.06,10.73q0,9.6,0,19.2v23c0,1.15-.09,2.31-.1,3.47,0,4.1,0,8.2,0,12.3a3.61,3.61,0,0,1-1.06,2.83c-3.68,3.59-2.31,3-7.06,3h-177C554.21,779.52,552.74,779.61,551.27,779.66ZM489.44,193.2v2a7.41,7.41,0,0,0,.68,3,21.1,21.1,0,0,0,2.7,4.61A6.15,6.15,0,0,0,493.9,204a17,17,0,0,0,4.3,2.59,13.28,13.28,0,0,0,10.7-.14c.48-.22,1-.45,1.42-.69a13.2,13.2,0,0,0,6.9-9.28c.62-2.67.51-2.69.08-5.57a13.81,13.81,0,0,0-3.55-7.23,14.82,14.82,0,0,0-12.63-4.33c-3.76,1-7.09,2.6-9.26,6C490.31,187.8,489.06,190.33,489.44,193.2Z"/><path class="cls-5" d="M15.5,316.93a142.38,142.38,0,0,1-6-21.54c-.67-3.4-1.26-6.82-1.73-10.26-.41-3-.61-6.06-.87-9.1-.15-1.78-.29-3.56-.36-5.35A85.22,85.22,0,0,1,6.65,260c.08-.84.14-1.67.18-2.51A119.85,119.85,0,0,1,16.65,215a91.23,91.23,0,0,1,15.48-24.42,73.63,73.63,0,0,1,32.79-21.63,79,79,0,0,1,12.6-2.81,40.44,40.44,0,0,1,4.41-.18c1.52,0,3,.05,4.56.06a1.46,1.46,0,0,0,1.29-.65h0l1.86.3a10.37,10.37,0,0,0,1.53.31c1,.06,2.11,0,3.16.06s2,.44,3.08.56a24,24,0,0,1,2.78.45c1.32.32,2.66.59,4,.81a34,34,0,0,1,5.18,1.25c2.29.75,4.54,1.65,6.82,2.43a69.28,69.28,0,0,1,7.5,3.25c2.85,1.37,5.61,2.88,8.32,4.49a33.88,33.88,0,0,1,4,2.5c1.07.86,2.26,1.54,3.32,2.39a15.43,15.43,0,0,1,1.29.89c1.54,1.59,3.58,2.58,5,4.3a1.54,1.54,0,0,0,.49.39,10.37,10.37,0,0,1,2.9,2.41q4.58,4.56,9.15,9.15a16.13,16.13,0,0,1,3.28,3.8,4.93,4.93,0,0,0,.84.94,22.49,22.49,0,0,1,2.21,2.65c1.29,1.78,2.67,3.49,3.94,5.29a5.65,5.65,0,0,0,2.08,1.89,5.22,5.22,0,0,0,.25,1.2,14.79,14.79,0,0,0,1,1.61,153.11,153.11,0,0,1,9.69,17.22,75.08,75.08,0,0,1,3.63,8.34l.68.75a34.52,34.52,0,0,0,1.79,5.52,8.2,8.2,0,0,1,.67,2c.14.89.77,1.13,1.46,1.36-.25.33-.57.63-.47,1.1.06.31.17.6.26.91.65,2.2,1.36,4.4,2,6.62.89,3.34,1.67,6.71,2.54,10.05a39.43,39.43,0,0,0,1.87,6.31,3.32,3.32,0,0,1,.28,2.1c-.94,3.2-1.61,6.46-2.57,9.65-.69,2.29-1.37,4.59-2.13,6.86-1,3.06-2.2,6.07-3.39,9.08-.31.77-.59,1.56-.85,2.35-1,3-1.92,6-3,8.91a7.93,7.93,0,0,0-.4,2.76,8.42,8.42,0,0,1-1.46.56,37.62,37.62,0,0,0-8.09,2.6,23.36,23.36,0,0,0-6.14,3.81,12.66,12.66,0,0,0-4.58,8.35,3.84,3.84,0,0,1-.23,1.23,1,1,0,0,1-.72.52c-.62,0-1.24-.07-1.87-.09a4,4,0,0,0-2.87,1.09,6.65,6.65,0,0,0-2.08,3.45,1.31,1.31,0,0,1-1-.68,42.09,42.09,0,0,1-2.23-4.52,50.8,50.8,0,0,0-2.19-4.88c-.32-.66-.7-1.3-1-2a111,111,0,0,0-4.72-10.64,5.15,5.15,0,0,1-.52-1.15,17.14,17.14,0,0,0-1.47-3.47,16.66,16.66,0,0,1-.83-1.7c-1.06-3.31-3-6.24-4.2-9.49-.84-2.25-2-4.37-3-6.59-1.28-3-2.83-5.85-4.08-8.86-.89-2.12-2-4.16-2.86-6.3-.79-1.94-1.91-3.75-2.75-5.67s-1.83-4-2.73-6c-1.3-2.87-2.79-5.64-4-8.55-1.66-4-4-7.64-5.53-11.67-.92-.94-.85-2.39-1.65-3.36a15.71,15.71,0,0,1-1.65-3.37c-1.65-3.29-3.29-6.58-4.95-9.86a5.84,5.84,0,0,0-.53-.77.86.86,0,0,0-1.14-.06,1.7,1.7,0,0,0-.33.83,1.14,1.14,0,0,0,.15.6c1,2.09,2,4.16,2.86,6.3,1.16,2.81,2.36,5.6,3.76,8.32,1,1.86,1.72,3.82,2.5,5.76,1,2.44,2,4.87,3.1,7.22,1.28,2.65,2.22,5.45,3.65,8a28.12,28.12,0,0,0,2.15,4.9c.23.47.41,1,.61,1.45,1,2.4,2.07,4.81,3.11,7.21.5,1.16,1,2.29,1.51,3.46a48.88,48.88,0,0,0,2.75,6.35,10.87,10.87,0,0,1,.68,1.42c1.28,3.33,2.84,6.54,4.29,9.79.35.77.67,1.54,1,2.32.68,1.64,1.32,3.3,2,4.94,1,2.32,2,4.62,3,6.92a22.65,22.65,0,0,1,1.77,4,11.75,11.75,0,0,0,1,2.63,30.22,30.22,0,0,1,1.89,4.32,27,27,0,0,0,1.56,3.77c1,2,1.83,4,2.67,6,.76,1.84,1.61,3.64,2.35,5.49.85,2.14,1.7,4.28,2.61,6.4.79,1.83,1.69,3.62,2.39,5.48.84,2.26,1.93,4.41,2.81,6.66,1,2.54,2.19,5,3.17,7.53.72,1.86,1.58,3.66,2.38,5.48a3,3,0,0,1-.51,2,7.42,7.42,0,0,0-1.57,3.28,1.83,1.83,0,0,0-1.43.51,99.88,99.88,0,0,0-13,13.76,119.6,119.6,0,0,0-15.16,26.84,174.33,174.33,0,0,0-8,24.88c-1.35,5.51-2.5,11.06-3.39,16.67-.47,3-.92,6-1.32,9-.47,3.54-1,7.07-1.17,10.65a7.36,7.36,0,0,1-.1,1.25,38.93,38.93,0,0,0-.51,6.28,23.36,23.36,0,0,1-.14,2.52,44.28,44.28,0,0,0-.41,6.61c-.07,4.31-.19,8.62-.15,12.94.07,7.46-.18,14.93.63,22.38,0,3.37.43,6.71.71,10.06a5.77,5.77,0,0,0,1.26,3.48,4.07,4.07,0,0,1,.44.78c-.39,3.39-.66,6.74-1.18,10.05a49.35,49.35,0,0,0-.52,7.86q.07,10.89.19,21.77c0,.95.05,1.9.11,2.84.08,1.47.22,2.93.28,4.4.08,2.1.11,4.21.17,6.31a25.37,25.37,0,0,0,.15,3.15,49.81,49.81,0,0,1,.36,5q.4,7.73.82,15.43c0,.42.09.84.13,1.26.11,1.15.24,2.3.32,3.45.28,4,.44,8,.85,11.95.23,2.2.41,4.39.54,6.59,0,.42.08.84.12,1.26.14,1.46.3,2.93.43,4.39.08.94,0,1.91.21,2.83a40.22,40.22,0,0,1,.48,5c0,.53.08,1,.13,1.57.15,1.46.31,2.93.47,4.39l.27,2.5c.3,2.82.6,5.64.88,8.46,0,.32,0,.64,0,1-.65-.51-1.33-1-2-1.55-1.18-1-2.36-2-3.48-3.14q-3.47-3.39-6.85-6.86c-1.45-1.5-2.81-3.09-4.24-4.59a16.19,16.19,0,0,0-1.68-1.4,22.29,22.29,0,0,0-2.56-3.56,13.38,13.38,0,0,1-2.19-2.66c-.64-1.08-1.79-1.76-2.37-2.93a3.68,3.68,0,0,0-1.81-1.69,20.55,20.55,0,0,0-1.08-1.89c-1.63-2.29-3.29-4.55-5-6.8a4.82,4.82,0,0,0-.94-.78c-.47-.33-.5-.89-.69-1.37a1.64,1.64,0,0,0-1.44-1c-.53-.05-1,0-1.58,0H59.38l-13.44,0-2.5,0a1.56,1.56,0,0,1-1.09-.53c1,0,2.1-.11,3.14-.11q9.6,0,19.2,0l22.35,0a14.56,14.56,0,0,0,1.87-.13.57.57,0,0,0,.26-.48,4.63,4.63,0,0,0-.54-1.12c-2.35-3.48-4.52-7.07-6.65-10.68-1-1.72-2-3.44-3-5.19a3.68,3.68,0,0,0-1.33-1.3,4.8,4.8,0,0,0-1.06-3.22c-.93-1.27-1.27-2.86-2.26-4.09-.69-2.2-2.28-4-2.84-6.26A69.27,69.27,0,0,1,68,600.12a1.6,1.6,0,0,0-1.44-1.06c-.73-.06-1.47-.06-2.2-.06H50.54a5,5,0,0,1,0-.55c1-.05,2.08-.14,3.12-.14,3.66,0,7.32,0,11,0,.42,0,.83,0,1.25,0,.65,0,1-.45.79-1-.54-1.46-1.12-2.92-1.65-4.39-1.33-3.73-2.63-7.48-4-11.21a4.81,4.81,0,0,0-1-2.24,8.64,8.64,0,0,0-.18-1.54c-.91-3.18-1.82-6.37-2.8-9.52a76.2,76.2,0,0,1-2.09-9.06,5.72,5.72,0,0,0-1.36-3.38,6.23,6.23,0,0,0-.13-2.78c-1-4.59-1.8-9.2-2.39-13.85a5.2,5.2,0,0,0-.4-1.5,1.07,1.07,0,0,0-.68-.55,10.51,10.51,0,0,0-1.86-.13h-11A19.77,19.77,0,0,1,35,537c-.64-.08-.78-.58-.72-1.15a4.32,4.32,0,0,0,2.39.62c4,0,8,0,11.93,0,1.77,0,2-.52,2-2.07a5.28,5.28,0,0,0-.25-1.54,7.18,7.18,0,0,1-.36-2.47,11,11,0,0,0-.48-4,5.5,5.5,0,0,1-.14-1.87c0-1.36,0-2.72,0-4.08a5.66,5.66,0,0,0-.21-1.85,9.89,9.89,0,0,1-.42-3.09c-.06-1.34-.4-1.66-1.7-1.7-.84,0-1.67,0-2.51,0l-9.74,0c.14-.15.26-.41.42-.43a12.72,12.72,0,0,1,1.85-.17H46a9.65,9.65,0,0,0,1.86-.14,1,1,0,0,0,.6-.61,7.27,7.27,0,0,0,.13-1.55q0-7.35.07-14.69c0-.63,0-1.25-.08-1.88a13.11,13.11,0,0,0,.67-4.94c-.05-.83,0-1.67,0-2.51a4.65,4.65,0,0,1,.15-1.55,10.24,10.24,0,0,0,.47-3.72,5.76,5.76,0,0,1,.14-1.87,10.18,10.18,0,0,0,.49-3.71,7.64,7.64,0,0,1,.36-2.16,7.55,7.55,0,0,0,.19-1.85,1.05,1.05,0,0,0-1-1c-1.57,0-3.15,0-4.72-.07l-10.06-.11a2.16,2.16,0,0,1,1.76-.46H48c.84,0,1.67,0,2.51,0a1.2,1.2,0,0,0,1.07-1c.48-2.56,1-5.12,1.43-7.69.4-2.26.79-4.52,1.14-6.79a9.15,9.15,0,0,0,0-3.42,1.58,1.58,0,0,0,.66-1c.06-.52.06-1,.08-1.57.06-2-.19-4,.53-5.91a5,5,0,0,0,.1-1.56c0-3.67,0-7.34,0-11,0-2.13-.21-2.34-2.33-2.35-5.88,0-11.76,0-17.63,0,.23-.18.45-.51.7-.53,1.36-.06,2.73-.06,4.09-.06H53a11.61,11.61,0,0,0,1.87-.17.63.63,0,0,0,.41-.44,4.84,4.84,0,0,0,.09-1.56,53.4,53.4,0,0,1-.48-5.64c-.17-2-.4-4-.66-5.95-.19-1.45-.46-2.9-.7-4.34a1,1,0,0,0-.87-.79c-.53,0-1-.07-1.58-.07h-12a23.49,23.49,0,0,1-2.52-.11c-.25,0-.48-.34-.72-.52q6.9,0,13.8-.05c.84,0,1.67-.06,2.5-.11a1.07,1.07,0,0,0,.79-.87,6.15,6.15,0,0,0,0-1.55c-.92-3.63-1.46-7.34-2.42-10.95a94.53,94.53,0,0,0-3.21-10.13c-.07-.3-.11-.61-.21-.91A166.36,166.36,0,0,0,39,363.6a17.26,17.26,0,0,0-1.16-1.85,74.52,74.52,0,0,0-4.36-8.3c-1.3-2-2.41-4.14-3.74-6.14-1.68-2.52-3.09-5.2-4.53-7.85a48,48,0,0,1-3.47-7.36c-1-1.13-1.13-2.67-1.89-3.92a26.82,26.82,0,0,1-1.59-4.07c-.68-1.74-1.48-3.44-2.23-5.15,0-.09-.15-.15-.23-.22C15.78,318.13,16,317.47,15.5,316.93Z"/><path class="cls-6" d="M696.11,144.58c-.63,0-1.25.1-1.88.1H373.86c-1.05,0-2.1-.08-3.15-.13a2.13,2.13,0,0,0,0-.62,19.37,19.37,0,0,1-.65-5c0-1-.44-2-.54-3.08s0-2.1-.06-3.15a1.79,1.79,0,0,0-.07-.62c-.72-1.82-.5-3.73-.53-5.61a15.79,15.79,0,0,0-.47-4.68,10,10,0,0,1-.16-2.81,9.66,9.66,0,0,0-.38-3.11,6.09,6.09,0,0,1-.24-1.86,7,7,0,0,0-.38-2.48,2.25,2.25,0,0,1-.22-.91,28.58,28.58,0,0,0-1-6.5c-.4-2-.89-4.08-1.37-6.11-1.12-4.8-2.89-11.47-4.12-14.81-1.71-4.61-3.3-9.28-5.47-13.72-1.1-2.26-2-4.62-3.17-6.85-.25-.47-.43-1-.71-1.41-2-3.09-3.48-6.46-5.49-9.54-1.6-2.46-3.12-5-4.91-7.31a65.77,65.77,0,0,0-5.42-6.92,24.83,24.83,0,0,0-4.13-4.73,6.89,6.89,0,0,1-1.07-1.16c-1.18-2-3.06-3.44-4.63-5.12a5,5,0,0,0-1.2-1,11.06,11.06,0,0,1-2.41-2,17.14,17.14,0,0,0-2.65-2.22c-1-.61-1.75-1.5-2.67-2.2-2.08-1.59-4.23-3.08-6.43-4.5a5.18,5.18,0,0,1-.69-.64c3-.62,5.95-1.31,8.95-1.85q7-1.28,14-2.39c2.28-.36,4.58-.56,6.88-.85l8.12-1c.63-.08,1.26-.1,1.89-.16l4.39-.45c.21,0,.42-.06.62-.07,2.84-.14,5.68-.23,8.49-.65,6.94-.14,13.86-.85,20.81-.76,6.41.08,12.83.06,19.25.11a59.73,59.73,0,0,1,6,.32c1.88.21,3.78.15,5.67.25,1.58.08,3.14.23,4.72.36.31,0,.62.09.94.09,3.58,0,7.12.54,10.68.82,2.83.22,5.64.62,8.46.94.52.06,1,.16,1.56.2,3.05.22,6.05.71,9.06,1.19,3.42.53,6.87.93,10.29,1.51,4.65.79,9.31,1.61,13.94,2.55Q484.6,16.16,495,18.76a417.2,417.2,0,0,1,40.65,12.47c9.08,3.31,18.07,6.88,26.86,10.91,5,2.28,10,4.53,14.83,7,10.06,5,19.9,10.47,29.47,16.41,8.67,5.39,17.13,11.07,25.32,17.16q9.36,7,18.23,14.56c5.68,4.87,11.15,9.93,16.53,15.12,4.69,4.53,9.2,9.24,13.62,14q7,7.53,13.38,15.53C694.6,142.82,695.37,143.69,696.11,144.58Z"/><path class="cls-7" d="M125.59,681.61c0-.31,0-.63,0-1-.28-2.82-.58-5.64-.88-8.46l-.27-2.5c-.16-1.46-.32-2.93-.47-4.39,0-.52-.1-1-.13-1.57a40.22,40.22,0,0,0-.48-5c-.17-.92-.13-1.89-.21-2.83-.13-1.46-.29-2.93-.43-4.39,0-.42-.09-.84-.12-1.26-.13-2.2-.31-4.39-.54-6.59-.41-4-.57-8-.85-11.95-.08-1.15-.21-2.3-.32-3.45,0-.42-.1-.84-.13-1.26q-.4-7.71-.82-15.43a49.81,49.81,0,0,0-.36-5,25.37,25.37,0,0,1-.15-3.15c-.06-2.1-.09-4.21-.17-6.31-.06-1.47-.2-2.93-.28-4.4-.06-.94-.1-1.89-.11-2.84q-.1-10.87-.19-21.77a49.35,49.35,0,0,1,.52-7.86c.52-3.31.79-6.66,1.18-10.05a4.07,4.07,0,0,0-.44-.78,5.77,5.77,0,0,1-1.26-3.48c-.28-3.35-.7-6.69-.71-10.06-.81-7.45-.56-14.92-.63-22.38,0-4.32.08-8.63.15-12.94a44.28,44.28,0,0,1,.41-6.61,23.36,23.36,0,0,0,.14-2.52,38.93,38.93,0,0,1,.51-6.28,7.36,7.36,0,0,0,.1-1.25c.17-3.58.7-7.11,1.17-10.65.4-3,.85-6,1.32-9,.89-5.61,2-11.16,3.39-16.67a174.33,174.33,0,0,1,8-24.88,119.6,119.6,0,0,1,15.16-26.84,99.88,99.88,0,0,1,13-13.76,1.83,1.83,0,0,1,1.43-.51,11.17,11.17,0,0,0,.85,1.3,25.2,25.2,0,0,0,3.92,3.59A50.47,50.47,0,0,0,179,393c5.84,2.25,4.56,2.86,7.33-3a2.07,2.07,0,0,1,1.5.3c.77.56,1.54,1.1,2.26,1.71,1.93,1.62,4,3.16,5.7,4.95a32.87,32.87,0,0,1,7.54,11.12,3.94,3.94,0,0,0,2.05,2.26l7.32,3.67,1.92.93c.06.41.11.72.15,1-1.25,2.06-2.55,4.09-3.73,6.18-1.55,2.74-3,5.53-4.49,8.3a1,1,0,0,1-1.31.5c-.86-.39-1.73-.77-2.57-1.2-2.24-1.15-4.46-2.33-6.69-3.49a1.49,1.49,0,0,0-1.76.13c-1.68,1.43-3.37,2.85-5,4.33a85.94,85.94,0,0,0-11.47,12.49,36,36,0,0,0-3.73,6.18c-.35.76-.66,1.54-.94,2.33-.47,1.33-.28,1.7,1,2.1.3.1.6.18.9.27q8.61,2.52,17.41,4.19c1.34.25,2.69.44,4,.66l.66.57h0a12.43,12.43,0,0,0-.52,1.48c-1.36,6.77-3,13.47-4.83,20.13a15.89,15.89,0,0,0-.86,3.65c-.23.7-.49,1.39-.69,2.1q-2.28,8.36-4.53,16.72c-1.54,5.78-2.89,11.6-3.89,17.51a80.68,80.68,0,0,0-1.2,13.79,42.93,42.93,0,0,0,1.18,10.29A3.9,3.9,0,0,1,181,549a1.88,1.88,0,0,0-.44,1.46c0,.74.09,1.47.19,2.2.38,2.81.79,5.61,1.17,8.42.26,1.87.48,3.75.75,5.62.53,3.84,1.11,7.68,1.62,11.53s1,7.92,1.45,11.88c.24,2,.5,4,.76,5.93.33,2.5.69,5,1,7.49s.53,4.8.81,7.2c.22,1.88.47,3.75.71,5.62.34,2.71.69,5.42,1,8.12q.56,4.53,1.1,9.07.42,3.58.8,7.2c.28,2.6.52,5.22.82,7.83s.71,5.41,1,8.12.56,5.64.83,8.46c0,.31.09.63.13.94.32,2.71.67,5.41,1,8.13.31,2.92.45,5.86.86,8.77.3,2.09.42,4.18.65,6.27.33,3.13.72,6.25,1,9.39s.54,6.06.81,9.09c0,.21.06.42.08.63.35,3.34.72,6.68,1,10,.3,3.14.43,6.29.83,9.41.27,2.09.39,4.19.57,6.28.09,1,.33,2.07.5,3.1.08,1.87.16,3.74.23,5.6a16.67,16.67,0,0,1,0,1.87,3,3,0,0,1-1,1.9,4.14,4.14,0,0,1-2.14,1.22,27.2,27.2,0,0,1-6.47.89c-1.52,0-3-.11-4.56-.1a4.06,4.06,0,0,1-2.3-.64,3.73,3.73,0,0,1-1.35-2.4c-.44-2.37-.86-4.74-1.34-7.09-.81-4-1.67-8-2.5-12a2.32,2.32,0,0,0-.65-1.38,16.61,16.61,0,0,0-.66-5.86c-.31-1.09-.56-2.2-.84-3.3-.1-.3-.23-.59-.3-.9-1.77-8.1-3.5-16.21-5.31-24.31s-3.68-16.18-5.53-24.26c-2.18-9.52-4.33-19.05-6.56-28.55-2.19-9.3-4.47-18.59-6.73-27.87-.44-1.83-1-3.64-1.49-5.45-.07-.27-.28-.31-.51-.14s-.19.11-.2.18c-.09.63-.18,1.25-.21,1.87-.09,1.79,0,3.59-.27,5.36-.33,2.4-.37,4.82-.48,7.23a17.91,17.91,0,0,1-.11,2.2,62.74,62.74,0,0,0-.51,7.86,24.33,24.33,0,0,1-.14,2.84,72.13,72.13,0,0,0-.5,8.18c0,1.05-.08,2.1-.15,3.15-.11,1.67-.28,3.35-.36,5-.11,2.42,0,4.85-.26,7.25-.41,3.67-.37,7.35-.52,11,0,1.16-.11,2.31-.18,3.46s-.22,2.52-.26,3.78c-.08,2.52-.11,5-.18,7.56,0,2.1-.16,4.2-.3,6.3a92.25,92.25,0,0,0-.14,11q-.12,3.78-.22,7.56a1.31,1.31,0,0,0-.51,1.08,7.65,7.65,0,0,0,.32,1.51,2.34,2.34,0,0,1,0,1.8,4,4,0,0,0-.07,3,2.3,2.3,0,0,1,0,1.51,5.63,5.63,0,0,0-.26,1.52c0,2.9.09,5.8.13,8.7,0,1.15,0,2.29.05,3.43,0,1.36,0,2.71.06,4.06.07,2,.18,3.95.24,5.92.08,3.22.14,6.45.21,9.67a5.65,5.65,0,0,1-2.71.68c-2.73,0-5.46.07-8.2.11H135.2a1.36,1.36,0,0,0-1.33-.77c-.05-.73,0-1.47-.14-2.19q-.89-6.4-1.79-12.79c-.4-2.8-.8-5.61-1.21-8.41,0-1.67.2-3.37-.51-5a2.59,2.59,0,0,1-.1-.93,14.43,14.43,0,0,0-.55-5,5.35,5.35,0,0,1-.1-1.56,3.92,3.92,0,0,0-.1-1.25c-.64-1.4-.46-2.88-.59-4.34a2.78,2.78,0,0,0-.42-.82c-.32-3.2-.57-6.41-1-9.59-.56-4.43-1-8.86-1.41-13.31A1.41,1.41,0,0,0,125.59,681.61Z"/><path class="cls-8" d="M267.74,297.92h2.57c.24.19.48.51.73.53a8.92,8.92,0,0,1,2.67.83c2.49,1,5,2.14,7.52,3,3.16,1.06,6.17,2.47,9.3,3.58a2.07,2.07,0,0,1,.76.52,1,1,0,0,1,.12.56c0,.07-.11.2-.19.21-.5.1-1,.2-1.51.26a1.73,1.73,0,0,0-1.09.54c-.31.05-.62.12-.93.16a66.08,66.08,0,0,0-11.7,2.5,56.52,56.52,0,0,0-37.66,40.79,53.86,53.86,0,0,0-1.43,10A56.69,56.69,0,0,0,238,375.46a55.2,55.2,0,0,0,11.86,24.76,55.79,55.79,0,0,0,20.74,15.61A53.79,53.79,0,0,0,287,420.24a57.8,57.8,0,0,0,18.81-1.09,56.37,56.37,0,0,0,41.93-40.42,68.76,68.76,0,0,0,2-14.33,18,18,0,0,0-.12-2.2c-.07-.84-.15-1.68-.21-2.52a43.46,43.46,0,0,0-.64-5.31A56.37,56.37,0,0,0,334,325.26c-.43-.45-.81-1-1.21-1.44l.85-.39a1.71,1.71,0,0,1,1.51,0c2.33,1.18,4.9,1.73,7.25,2.84,1.22.58,2.52,1,3.78,1.44a44.08,44.08,0,0,1,4.33,1.76,9.81,9.81,0,0,0,4.45,1.3,22.63,22.63,0,0,1,2.88,5.23c.88,2.24,1.76,4.48,2.52,6.77,1.15,3.49,1.83,7.09,2.66,10.65a19.14,19.14,0,0,1,.18,3.14,2.54,2.54,0,0,0,.15.92,8.61,8.61,0,0,1,.45,3.73q0,3.46,0,6.93a8.49,8.49,0,0,1-.43,3.42,4.4,4.4,0,0,0-.19,1.55c0,2.77-.25,2.68,2.21,3.9a8.85,8.85,0,0,1,1.39.75,6.13,6.13,0,0,1,.82.93v.67c-.37,1.09-.67,2.22-1.14,3.26a9.8,9.8,0,0,0-1,3.29c-.08.93-.53,1.84-.55,2.77a17,17,0,0,0,.68,5.29,5,5,0,0,0,1.4,2.42c1,.91,2,1.83,3.13,2.64a106.66,106.66,0,0,0,10.18,6.33c8.4,4.81,17,9.22,25.63,13.62,10.49,5.36,21,10.61,31.56,15.9,10.15,5.1,20.27,10.26,30.22,15.74,2.77,1.53,5.49,3.13,8.21,4.71a7.5,7.5,0,0,1,2.44,2,4.65,4.65,0,0,0,1.78,1.27,31.24,31.24,0,0,1,3.29,1.86c1.27.85,1.46,1.69.74,3.29a5.63,5.63,0,0,1-.49.81l-1.79,2.58a3.2,3.2,0,0,0-2.09.54,11.16,11.16,0,0,1-1.88,1.13c-2.08,1-4,2.34-6,3.5-.82.48-1.67.9-2.5,1.35a3.7,3.7,0,0,1-1.82.43c-.52,0-1.05,0-1.57,0a6.19,6.19,0,0,1-3.34-.74c-1.77-.93-3.57-1.8-5.35-2.7a33.2,33.2,0,0,1-5-2.73c-2.78-.72-5-2.6-7.65-3.62a21.59,21.59,0,0,0-4.12-2.3L388.74,436a22.18,22.18,0,0,1-2.52-1.3,10.37,10.37,0,0,0-3.63-1.83c-.95-.88-2.27-1-3.31-1.74a24.68,24.68,0,0,0-5-2.55,15.15,15.15,0,0,1-1.39-.71c-.73-.4-1.45-.84-2.2-1.22l-24.26-12.12c-.56-.28-1.13-.57-1.7-.84a1.68,1.68,0,0,0-2,.37,9.78,9.78,0,0,0-1.27,1.39,4,4,0,0,0-.32,1.19,5.21,5.21,0,0,1-1.92,1.84,2.52,2.52,0,0,0-1.81.36c-1.42,1.25-3.12,2.13-4.58,3.3a44.1,44.1,0,0,1-6.11,3.84,54.28,54.28,0,0,1-7.72,3.52c-2.16.8-4.37,1.47-6.56,2.18a3.73,3.73,0,0,1-.95,0c-.27-1,0-2.13-.9-2.93a2.93,2.93,0,0,0-.6-.15l-12.21-.74c-.83,0-1.67-.07-2.5-.12l-7.51-.49c-.73-.05-1.47-.07-2.2-.13a1.2,1.2,0,0,1-.57-.21c-.16-.11-.38-.31-.38-.46,0-.62.16-1.24.23-1.86A.59.59,0,0,0,284,424a17.68,17.68,0,0,0-8.84,5.67c-.4.48-.77,1-1.15,1.49a9.16,9.16,0,0,1-2.81-.21,40.49,40.49,0,0,1-5.86-2.26c-1.28-.7-2.62-1.32-3.94-2A54.72,54.72,0,0,1,252,421a49.66,49.66,0,0,1-6-5c-2-2.14-4.14-4.17-6.21-6.26a12.93,12.93,0,0,1-1.3-1.37,97.24,97.24,0,0,1-6.73-10.21,45,45,0,0,1-2.25-4.5c-.91-2.11-1.75-4.26-2.57-6.41a26.45,26.45,0,0,1-.86-3c-.75-3.15-1.86-6.21-2-9.48a8.36,8.36,0,0,1-.49-3.71,8.41,8.41,0,0,0-.41-3.41,2.24,2.24,0,0,1-.17-.92c.08-2.29-.41-4.62.44-6.86a2.93,2.93,0,0,0,.12-.94c0-1.05-.05-2.1.06-3.14s.4-2.05.57-3.08c.12-.72.09-1.47.28-2.17a70,70,0,0,1,2-7.25,6.14,6.14,0,0,0,.27-2.48,1.41,1.41,0,0,1,.16-.6,1.36,1.36,0,0,0,.54-1.17l0-.08a1.3,1.3,0,0,0,.58-1.23,3.87,3.87,0,0,1,.25-.9,140.05,140.05,0,0,1,7.17-12.23,67.55,67.55,0,0,1,11.69-13.16,66.32,66.32,0,0,1,18.64-11.64A2.89,2.89,0,0,0,267.74,297.92Z"/><path class="cls-6" d="M170.5,215.87a5.65,5.65,0,0,1-2.08-1.89c-1.27-1.8-2.65-3.51-3.94-5.29a22.49,22.49,0,0,0-2.21-2.65,4.93,4.93,0,0,1-.84-.94,16.13,16.13,0,0,0-3.28-3.8q-4.56-4.61-9.15-9.15a10.37,10.37,0,0,0-2.9-2.41,1.54,1.54,0,0,1-.49-.39c-1.43-1.72-3.47-2.71-5-4.3a15.43,15.43,0,0,0-1.29-.89c-1.06-.85-2.25-1.53-3.32-2.39a33.88,33.88,0,0,0-4-2.5c-2.71-1.61-5.47-3.12-8.32-4.49a69.28,69.28,0,0,0-7.5-3.25c-2.28-.78-4.53-1.68-6.82-2.43a34,34,0,0,0-5.18-1.25c-1.34-.22-2.68-.49-4-.81a24,24,0,0,0-2.78-.45c-1-.12-2.05-.46-3.08-.56s-2.11,0-3.16-.06a10.37,10.37,0,0,1-1.53-.31l-1.86-.3c.51-.79,1-1.62,1.52-2.38q8.35-11.44,17.45-22.32c3.57-4.27,7.31-8.39,11-12.58,3.8-4.35,7.87-8.44,11.89-12.6,4.74-4.91,9.64-9.65,14.66-14.28,7.4-6.83,15-13.42,23-19.59q5.86-4.52,11.78-9c.92-.69,1.92-1.27,2.88-1.9a5.7,5.7,0,0,1-.16,1.25c-1.3,3.54-2,7.25-2.93,10.89a12.6,12.6,0,0,0-.81,4,10.35,10.35,0,0,0-.62,3.7c-.75,1.65-.38,3.53-1,5.22a5.72,5.72,0,0,0-.18,1.86,9.33,9.33,0,0,1-.42,3.1,6.07,6.07,0,0,0-.2,1.87c0,1.15,0,2.31,0,3.46a5.76,5.76,0,0,1-.14,1.87,11.94,11.94,0,0,0-.46,4.36c0,3.88,0,7.77,0,11.65a10.57,10.57,0,0,0,.34,3.11,10.27,10.27,0,0,1,.26,2.49,18.78,18.78,0,0,0,.12,3.76,24,24,0,0,1,.57,5c0,1,.66,2,.59,3.07a6.38,6.38,0,0,0,.5,3.08,25.69,25.69,0,0,0,.79,4.94c.63,3.28,1,6.63,2.21,9.76a1.72,1.72,0,0,1,.18.6c0,1.94.92,3.64,1.41,5.46.3,1.1.59,2.22.93,3.32.94,3.11,2.26,6.08,3.32,9.15.34,1,.75,1.95,1.12,2.93a14.21,14.21,0,0,0,.62,1.77,55.86,55.86,0,0,1,3.33,8.82,81.73,81.73,0,0,1,2.81,9.63c.33,1.52.9,3,1.29,4.53a64.54,64.54,0,0,0,1.59,6.7l.12,3.77Z"/><path class="cls-9" d="M196.38,458.93c-1.34-.22-2.69-.41-4-.66q-8.81-1.66-17.41-4.19c-.3-.09-.6-.17-.9-.27-1.26-.4-1.45-.77-1-2.1.28-.79.59-1.57.94-2.33a36,36,0,0,1,3.73-6.18,85.94,85.94,0,0,1,11.47-12.49c1.63-1.48,3.32-2.9,5-4.33a1.49,1.49,0,0,1,1.76-.13c2.23,1.16,4.45,2.34,6.69,3.49.84.43,1.71.81,2.57,1.2a1,1,0,0,0,1.31-.5c1.49-2.77,2.94-5.56,4.49-8.3,1.18-2.09,2.48-4.12,3.73-6.18a2.78,2.78,0,0,1,2.66-.3,10.44,10.44,0,0,0,3.59,1c1.24.06,2.37.8,3.66.63a1.45,1.45,0,0,1,.62.06c3.05,1,6.19.49,9.29.47a26.59,26.59,0,0,0,4.88-.81c.24-.05.41-.43.62-.65a2.05,2.05,0,0,1,.54.31l.67.57c.39.34.81.66,1.18,1a64.81,64.81,0,0,0,13,9.88c2.18,1.26,4.43,2.4,6.65,3.59a2,2,0,0,1-1.06,1.8,70.45,70.45,0,0,1-10.79,6.37,10.89,10.89,0,0,0-1.4.72,4,4,0,0,0-.68.62c-.29.1-.34.2-.13.25a1.16,1.16,0,0,0,.13-.24l4.44,0a3.42,3.42,0,0,1-2.08,3.54l-.27.16a1.63,1.63,0,0,0-.79,1.27c-.35,2.28-.67,4.56-2.17,6.45a.82.82,0,0,0,.24,1.1,3.58,3.58,0,0,0,2.06.68,8.88,8.88,0,0,1,2.73.67,1.66,1.66,0,0,1,1.09,1.05,14.14,14.14,0,0,1,.46,1.48,3.47,3.47,0,0,1-.75.54c-1.77.68-3.68.75-5.48,1.3-1.09-.08-2,.58-3.08.6-2.2.05-4.31.95-6.54.74a2,2,0,0,0-.92.18,8.46,8.46,0,0,1-3.42.39h-18a11.82,11.82,0,0,1-4.05-.44,5.53,5.53,0,0,0-2.19-.16c-2.55.24-5-.7-7.48-.78-1.6-.71-3.3-.47-5-.5h0A.64.64,0,0,0,196.38,458.93Z"/><path class="cls-9" d="M186.31,390c-2.77,5.82-1.49,5.21-7.33,3a50.47,50.47,0,0,1-12.07-6.56A25.2,25.2,0,0,1,163,382.8a11.17,11.17,0,0,1-.85-1.3,7.42,7.42,0,0,1,1.57-3.28,3,3,0,0,0,.51-2,1.67,1.67,0,0,0,1.29-.75c1-1.45,2.08-2.87,3.12-4.3s1.8-2.72,2.69-4.08a1.94,1.94,0,0,1,1.51-.92c.31,0,.61-.07.92-.11l1.8,0c.73.08,1.49.24,1.9-.63,0-.21,0-.42,0-.63a3.16,3.16,0,0,0-1.71-3.1,13.78,13.78,0,0,1-4.26-4.56,10.15,10.15,0,0,1-1.44-3.8,3.63,3.63,0,0,1,1.87-3.68,3.14,3.14,0,0,1,3.76.56,5.78,5.78,0,0,1,1,1.16c.52.79,1,1.61,1.42,2.44.3.55.52,1.14.8,1.71s1,.42,1.33,0a1.33,1.33,0,0,0,.38-1.15,9.94,9.94,0,0,0-.53-1.47c-.54-1.47-1.14-2.93-1.6-4.43a8.87,8.87,0,0,1-.34-2.47,3.13,3.13,0,0,1,2.33-3.32c1.88-.66,3.79-1.21,5.69-1.82,3.29-1.06,6.59-2.09,9.86-3.2,1.78-.61,3.51-1.37,5.26-2.06a2.79,2.79,0,0,1,1.12,1.48,102.26,102.26,0,0,1,5.15,16.1,25,25,0,0,1,.87,7.12,9.63,9.63,0,0,0,.41,3.72,5.5,5.5,0,0,1,.14,2.49,16.89,16.89,0,0,1-.93,3.94,6.32,6.32,0,0,1-4.19,3.95c-.4.11-.78.3-1.17.44a11.3,11.3,0,0,1-4.31.72c-1.25-.07-2.51,0-3.77,0a1.59,1.59,0,0,0-1.5.94c-.4.74-.78,1.49-1.16,2.24Z"/><path class="cls-10" d="M175.55,366.05l-1.8,0a2,2,0,0,0-1.4-.53,12.41,12.41,0,0,1-5.6-1.46l-2.52-1.11-1.33-1.32a2.47,2.47,0,0,1-.35-3.64,6.17,6.17,0,0,1,.43-.46,2.24,2.24,0,0,0,.36-.51.74.74,0,0,0-.12-.87c-.8-.82-1.67-1.59-2.44-2.45-2.88-3.2-5-6.76-5-11.25a1.1,1.1,0,0,0,0-.31,6.65,6.65,0,0,1,2.08-3.45,4,4,0,0,1,2.87-1.09c.63,0,1.25.13,1.87.09a1,1,0,0,0,.72-.52,3.84,3.84,0,0,0,.23-1.23,12.66,12.66,0,0,1,4.58-8.35,23.36,23.36,0,0,1,6.14-3.81,37.62,37.62,0,0,1,8.09-2.6,8.42,8.42,0,0,0,1.46-.56,29.67,29.67,0,0,0,10.51-3,16.47,16.47,0,0,0,5.25-4.26c.33,0,.58-.14.73-.06.8.41,1.53.65,2.2-.27a1.07,1.07,0,0,1,1.41-.25,9,9,0,0,1,3.7,3.32,14.29,14.29,0,0,1,2.24,5.48,12.41,12.41,0,0,1-.07,5,10.33,10.33,0,0,1-4.2,6.42c-1.36.95-2.83,1.77-4.26,2.64-1.75.69-3.48,1.45-5.26,2.06-3.27,1.11-6.57,2.14-9.86,3.2-1.9.61-3.81,1.16-5.69,1.82a3.13,3.13,0,0,0-2.33,3.32,8.87,8.87,0,0,0,.34,2.47c.46,1.5,1.06,3,1.6,4.43a9.94,9.94,0,0,1,.53,1.47,1.33,1.33,0,0,1-.38,1.15c-.37.4-1.12.42-1.33,0s-.5-1.16-.8-1.71c-.44-.83-.9-1.65-1.42-2.44a5.78,5.78,0,0,0-1-1.16,3.14,3.14,0,0,0-3.76-.56,3.63,3.63,0,0,0-1.87,3.68,10.15,10.15,0,0,0,1.44,3.8,13.78,13.78,0,0,0,4.26,4.56,3.16,3.16,0,0,1,1.71,3.1c0,.21,0,.42,0,.63C176.79,365.54,176.07,365.5,175.55,366.05Z"/><path class="cls-11" d="M170.5,215.87l26.56,0c.13.16.34.3.39.48.27,1.11.55,2.23.75,3.36a30.51,30.51,0,0,1,.56,4c.14,2.93.8,5.81.83,8.75,0,1.67.19,3.34.36,5a56.18,56.18,0,0,1,.07,5.95,1,1,0,0,1-.82.83,4.2,4.2,0,0,1-.62.08l-13.52-.09a75.08,75.08,0,0,0-3.63-8.34,153.11,153.11,0,0,0-9.69-17.22,14.79,14.79,0,0,1-1-1.61A5.22,5.22,0,0,1,170.5,215.87Z"/><path class="cls-12" d="M262.12,431.7c-2.22-1.19-4.47-2.33-6.65-3.59a64.81,64.81,0,0,1-13-9.88c-.37-.37-.79-.69-1.18-1a.69.69,0,0,0-.67-.57,2.05,2.05,0,0,0-.54-.31,2.46,2.46,0,0,0-.79-1.34,67.61,67.61,0,0,1-12.61-19.49,69.75,69.75,0,0,1-4.44-14.42c-.44-2.17-.44-4.39-1-6.53a5.82,5.82,0,0,1-.1-1.57c0-3.57,0-7.15,0-10.72a21.14,21.14,0,0,1,.3-2.49c.07-.52.2-1,.23-1.56a41.27,41.27,0,0,1,1.54-8c.69-2.63,1.66-5.2,2.54-7.78a2.74,2.74,0,0,1,1-1.58,6.14,6.14,0,0,1-.27,2.48,70,70,0,0,0-2,7.25c-.19.7-.16,1.45-.28,2.17-.17,1-.47,2-.57,3.08s0,2.09-.06,3.14a2.93,2.93,0,0,1-.12.94c-.85,2.24-.36,4.57-.44,6.86a2.24,2.24,0,0,0,.17.92,8.41,8.41,0,0,1,.41,3.41,8.36,8.36,0,0,0,.49,3.71c.17,3.27,1.28,6.33,2,9.48a26.45,26.45,0,0,0,.86,3c.82,2.15,1.66,4.3,2.57,6.41a45,45,0,0,0,2.25,4.5,97.24,97.24,0,0,0,6.73,10.21,12.93,12.93,0,0,0,1.3,1.37c2.07,2.09,4.19,4.12,6.21,6.26a49.66,49.66,0,0,0,6,5,54.72,54.72,0,0,0,9.41,5.65c1.32.64,2.66,1.26,3.94,2a40.49,40.49,0,0,0,5.86,2.26,9.16,9.16,0,0,0,2.81.21c-.47,1.59-1,3.19-1.4,4.72-1.31,1.05-2.87,1.45-4.22,2.23a1.2,1.2,0,0,1-1.13-1.23c0-.72,0-1.44-.07-2.15a1.16,1.16,0,0,0-.6-1A25.33,25.33,0,0,0,262.12,431.7Z"/><path class="cls-13" d="M303.17,144.54a14.07,14.07,0,0,1-4.44,0,8.29,8.29,0,0,0-.06-1.58c-.46-2.14-1-4.27-1.32-6.44-.21-1.33-.8-2.6-1.13-3.92-.46-1.82-.83-3.67-1.26-5.5s-.88-3.44-1.27-5.18a61.7,61.7,0,0,1-1.5-6.73,67.78,67.78,0,0,1-2-7.26c-.7-2.63-1.45-5.25-2-7.91a30.33,30.33,0,0,0-1.34-5.16c-.12-2.44-1.28-4.63-1.7-7-.2-1.13-.43-2.25-.72-3.36-.81-3.14-1.66-6.27-2.49-9.41a5.66,5.66,0,0,1-.19-.91,1.33,1.33,0,0,1,.53-1.09.74.74,0,0,1,1.09.13,68.12,68.12,0,0,1,2.68,8.69,8.57,8.57,0,0,0,.16.93c1.15,3,1.87,6.22,2.73,9.35,1.17,4.23,2.35,8.47,3.62,12.67,1,3.21,1.77,6.47,2.7,9.68q1.81,6.33,3.42,12.73c.71,2.84,1.48,5.67,2.25,8.49.65,2.43,1.35,4.84,2,7.26A13.3,13.3,0,0,1,303.17,144.54Z"/><path class="cls-11" d="M195.81,278.89a39.43,39.43,0,0,1-1.87-6.31c-.87-3.34-1.65-6.71-2.54-10.05-.59-2.22-1.3-4.42-2-6.62-.09-.31-.2-.6-.26-.91-.1-.47.22-.77.47-1.1h9.8a30.93,30.93,0,0,1-.19,7.81c-.08.62-.23,1.24-.27,1.86a100.57,100.57,0,0,1-1.81,12.08c-.13.72-.21,1.45-.37,2.16A1.36,1.36,0,0,1,195.81,278.89Z"/><path class="cls-13" d="M199.46,253.89h-9.8c-.69-.23-1.32-.47-1.46-1.36a8.2,8.2,0,0,0-.67-2,34.52,34.52,0,0,1-1.79-5.52l12.46-.05a3.53,3.53,0,0,1,1.22.17,1.48,1.48,0,0,1,.62.62,1.18,1.18,0,0,1,.13.6c0,2.07,0,4.15,0,6.22A1.84,1.84,0,0,1,199.46,253.89Z"/><path class="cls-12" d="M228,337.73a1.3,1.3,0,0,1-.58,1.23A1.13,1.13,0,0,1,228,337.73Z"/><path class="cls-12" d="M227.42,339a1.36,1.36,0,0,1-.54,1.17A1,1,0,0,1,227.42,339Z"/><path class="cls-13" d="M740.9,371c0-1.26,0-2.52,0-3.78q0-72.75,0-145.52a14.62,14.62,0,0,1,.21-4.07,11.94,11.94,0,0,1,.82,1.31c4.33,9.35,8.37,18.82,12,28.46,2.41,6.39,4.69,12.83,6.79,19.33q5.9,18.3,10.18,37,2.09,9.06,3.76,18.2c.81,4.44,1.65,8.88,2.23,13.36.66,5.1,1.51,10.18,2.2,15.28.38,2.81.59,5.64.87,8.46.34,3.34.69,6.68,1,10,.13,1.36.14,2.73.21,4.09-.39-.15-.79-.27-1.17-.45a15.53,15.53,0,0,0-7-1.53c-9.25,0-18.5,0-27.75,0-.84,0-1.68,0-2.52,0C742.14,371.19,741.52,371.08,740.9,371Z"/><path class="cls-14" d="M15.83,318.74c.08.07.19.13.23.22.75,1.71,1.55,3.41,2.23,5.15a26.82,26.82,0,0,0,1.59,4.07c.76,1.25.9,2.79,1.89,3.92a48,48,0,0,0,3.47,7.36c1.44,2.65,2.85,5.33,4.53,7.85,1.33,2,2.44,4.13,3.74,6.14a74.52,74.52,0,0,1,4.36,8.3c-1.37,0-2.73,0-4.1,0H26.19a13.33,13.33,0,0,0-5.23,1c-3.4,1.4-5.45,3.84-5.65,7.63,0,.73,0,1.47-.06,2.2-.05,3.58-.16,7.15-.13,10.73,0,4.42-.37,8.82-.44,13.23q-.16,9.94-.3,19.87a29.87,29.87,0,0,1-.1,3.15,54.57,54.57,0,0,0-.27,6q-.12,8.35-.25,16.71a36.74,36.74,0,0,1-.11,3.79,53.48,53.48,0,0,0-.26,5.66c-.08,5.36-.14,10.73-.25,16.09-.07,3.15-.29,6.3-.36,9.45-.12,5.67-.14,11.35-.27,17-.08,3.78-.3,7.56-.38,11.34-.11,4.73-.14,9.46-.21,14.2,0,.51-.12,1-.18,1.54a1.79,1.79,0,0,1-.31-.53c-1.51-6.76-3-13.51-4.29-20.32C6.32,496,5.66,491.43,5,486.86c-.6-4-1.16-8.1-1.65-12.16-.34-2.81-.55-5.64-.81-8.46l-.45-4.7c0-.31-.07-.62-.08-.94-.12-5.25-.83-10.46-.79-15.72,0-2.84-.05-5.67-.08-8.5a4.41,4.41,0,0,0,.09-.62q0-8.07,0-16.13a129.27,129.27,0,0,1,.51-15.12c0-.31.06-.63.06-.95,0-4.21.57-8.38.86-12.58.22-3,.66-6.05,1-9.08.25-2.29.5-4.59.78-6.89q.75-5.94,1.67-11.85c.63-4.05,1.33-8.08,2.05-12.12,1.18-6.72,2.57-13.4,4.1-20.06.73-3.17,1.51-6.33,2.3-9.49.22-.92.52-1.82.78-2.72A4.41,4.41,0,0,0,15.83,318.74Z"/><path class="cls-6" d="M87.78,165.35a1.46,1.46,0,0,1-1.29.65c-1.52,0-3,0-4.56-.06a3,3,0,0,1,1.79-.44Z"/><path class="cls-3" d="M15.83,318.74a4.41,4.41,0,0,1-.52,0c.06-.62.12-1.23.19-1.84C16,317.47,15.78,318.13,15.83,318.74Z"/><path class="cls-13" d="M740.94,417.63q0-10.56,0-21.14c0-.84,0-1.68-.05-2.52a17.76,17.76,0,0,1,2.18-.26q12,0,24,0a3.91,3.91,0,0,1,1.24.15c.25.09.43.4.62.62a.45.45,0,0,1,.07.31c-.42,6.92-.25,13.85-.4,20.78,0,.32,0,.63,0,.94,0,.89-.47,1.26-1.43,1.29-.63,0-1.26,0-1.89,0-7,0-14.08,0-21.13,0C743,417.8,742,417.69,740.94,417.63Z"/><path class="cls-15" d="M740.89,460.65q0-11.59,0-23.17A5.16,5.16,0,0,1,742,437a13,13,0,0,1,1.88-.07H765c.73,0,1.46.05,2.19.09a1,1,0,0,1,.79.85c0,.94.06,1.88,0,2.82q-.09,8.18-.2,16.35c0,.94-.08,1.88-.14,2.82a1.09,1.09,0,0,1-1,1c-.53,0-1,0-1.57.05h-21.4A8,8,0,0,1,740.89,460.65Z"/><path class="cls-15" d="M740.89,503.56q0-11.58,0-23.15a8,8,0,0,1,1.48-.49,13.05,13.05,0,0,1,1.88,0H764.1c.74,0,1.47,0,2.21.07a1.09,1.09,0,0,1,1,1.06c0,.63,0,1.26,0,1.89-.09,4,0,8-.35,12-.18,2.19-.08,4.41-.13,6.61a7.31,7.31,0,0,1-.13,1.56,1,1,0,0,1-.59.63,6.25,6.25,0,0,1-1.56.14q-10.71,0-21.43,0A20.36,20.36,0,0,1,740.89,503.56Z"/><path class="cls-15" d="M740.92,546.43q0-9.9,0-19.81c0-1.26,0-2.52,0-3.77.84-.05,1.68-.13,2.52-.13h20.18c.63,0,1.26,0,1.89.08a1.18,1.18,0,0,1,.84.83,1.63,1.63,0,0,1,0,.31c-.39,6.5-.23,13-.38,19.52,0,.74-.06,1.47-.1,2.2a1,1,0,0,1-.78.86c-.53,0-1,.1-1.57.1h-20.5C742.38,546.62,741.65,546.5,740.92,546.43Z"/><path class="cls-15" d="M740.89,588.79c0-3.85,0-7.7.05-11.54s0-7.7,0-11.55c.83-.07,1.67-.19,2.5-.19,6.51,0,13,0,19.52,0,.52,0,1,0,1.57.06a1,1,0,0,1,1,1c0,.63,0,1.26,0,1.89q-.09,8.81-.21,17.61c0,.53,0,1-.06,1.57-.08,1.27-.47,1.65-1.78,1.67q-3.3,0-6.61,0l-13.22-.06A4.89,4.89,0,0,1,740.89,588.79Z"/><path class="cls-15" d="M741,631.56V608c.63,0,1.25-.13,1.88-.13q9.76,0,19.52,0c.52,0,1,.06,1.56.1a1,1,0,0,1,.78.86c0,.31.07.62.06.94-.11,4.4,0,8.8-.34,13.19-.17,2.09-.1,4.2-.14,6.29,0,.52-.07,1-.12,1.56a1,1,0,0,1-.87.77c-.21,0-.42.05-.62.05q-10.23,0-20.46,0A10.65,10.65,0,0,1,741,631.56Z"/><path class="cls-15" d="M741,673.84l0-23.45c.74,0,1.47-.12,2.21-.12,5.68,0,11.36,0,17,0,.94,0,1.89.11,2.83.18a1.07,1.07,0,0,1,.82.85,33.88,33.88,0,0,1,0,3.77c-.33,3.57-.23,7.14-.31,10.72,0,2.1,0,4.2-.08,6.3a3.91,3.91,0,0,1-.16,1.24,1.1,1.1,0,0,1-.65.58,4.32,4.32,0,0,1-1.25.13q-9.15,0-18.3,0C742.44,674,741.71,673.89,741,673.84Z"/><path class="cls-15" d="M740.88,715.66c0-3.57,0-7.15.06-10.73q0-6.15,0-12.3c2,0,4-.13,6-.13,4.31,0,8.62,0,12.93,0,.74,0,1.47,0,2.21.08a1,1,0,0,1,.84.8c0,.42.08.83.07,1.25q-.1,9.62-.23,19.24c0,.41,0,.83-.09,1.25a1.27,1.27,0,0,1-1.08,1c-.53,0-1.06.06-1.58.06l-16.72-.06A4.31,4.31,0,0,1,740.88,715.66Z"/><path class="cls-15" d="M740.93,757.87v-23a13.8,13.8,0,0,1,1.56-.18q8.84,0,17.66,0a8.18,8.18,0,0,1,1.56.16.77.77,0,0,1,.42.43,3,3,0,0,1,.14.93c0,4.31,0,8.62-.2,12.92-.12,2.62-.2,5.24-.31,7.86a1.09,1.09,0,0,1-1,1c-.52,0-1,.06-1.57.06q-8,0-16.08-.05C742.39,758.05,741.66,757.93,740.93,757.87Z"/><path class="cls-11" d="M11.74,521.39c.06-.51.17-1,.18-1.54.07-4.74.1-9.47.21-14.2.08-3.78.3-7.56.38-11.34.13-5.68.15-11.36.27-17,.07-3.15.29-6.3.36-9.45.11-5.36.17-10.73.25-16.09a53.48,53.48,0,0,1,.26-5.66,36.74,36.74,0,0,0,.11-3.79q.13-8.35.25-16.71a54.57,54.57,0,0,1,.27-6,29.87,29.87,0,0,0,.1-3.15q.15-9.93.3-19.87c.07-4.41.47-8.81.44-13.23,0-3.58.08-7.15.13-10.73,0-.73,0-1.47.06-2.2.2-3.79,2.25-6.23,5.65-7.63a13.33,13.33,0,0,1,5.23-1h7.58c1.37,0,2.73,0,4.1,0A17.26,17.26,0,0,1,39,363.6a166.36,166.36,0,0,1,8.06,19.62c.1.3.14.61.21.92-.63,0-1.25.1-1.88.1H38.79c-.63,0-1.26.05-1.89.09a1,1,0,0,0-.85.78c0,.52-.08,1-.09,1.57q-.1,10.08-.19,20.18a7.37,7.37,0,0,0,.11.93c.24.18.47.49.72.52a23.49,23.49,0,0,0,2.52.11h12c.53,0,1,0,1.58.07a1,1,0,0,1,.87.79c.24,1.44.51,2.89.7,4.34.26,2,.49,4,.66,5.95a53.4,53.4,0,0,0,.48,5.64,4.84,4.84,0,0,1-.09,1.56.63.63,0,0,1-.41.44,11.61,11.61,0,0,1-1.87.17H40.4c-1.36,0-2.73,0-4.09.06-.25,0-.47.35-.7.53-.08.84-.21,1.67-.22,2.5q-.09,9-.14,17.95c0,.63,0,1.26,0,1.89a1,1,0,0,0,1,1c.63,0,1.25.07,1.88.07l16.08,0a9.15,9.15,0,0,1,0,3.42c-.35,2.27-.74,4.53-1.14,6.79-.46,2.57-1,5.13-1.43,7.69a1.2,1.2,0,0,1-1.07,1c-.84,0-1.67,0-2.51,0h-11a2.16,2.16,0,0,0-1.76.46,1.85,1.85,0,0,0-.44,1.44q-.08,10-.13,20.08a3.91,3.91,0,0,0,.1,1.24,1,1,0,0,0,.61.6,11.6,11.6,0,0,0,1.87.13H48.6c0,.63.09,1.25.08,1.88q0,7.35-.07,14.69a7.27,7.27,0,0,1-.13,1.55,1,1,0,0,1-.6.61,9.65,9.65,0,0,1-1.86.14H36.94a12.72,12.72,0,0,0-1.85.17c-.16,0-.28.28-.42.43-.13,1.34-.35,2.69-.37,4-.09,5.31-.11,10.62-.15,15.93,0,.73.05,1.46.08,2.19-.06.57.08,1.07.72,1.15a19.77,19.77,0,0,0,2.18.08h11a10.51,10.51,0,0,1,1.86.13,1.07,1.07,0,0,1,.68.55,5.2,5.2,0,0,1,.4,1.5c.59,4.65,1.42,9.26,2.39,13.85a6.23,6.23,0,0,1,.13,2.78l-16.67,0c-2.93,0-2.93,0-2.93,3,0,2.62.07,5.25-.12,7.85-.26,3.77-.19,7.54-.21,11.3a2.33,2.33,0,0,0,.16.91.72.72,0,0,0,.44.4,8.07,8.07,0,0,0,1.55.16c4,0,8,0,11.95,0s8.17,0,12.26-.06a4.81,4.81,0,0,1,1,2.24c1.36,3.73,2.66,7.48,4,11.21.53,1.47,1.11,2.93,1.65,4.39.21.55-.14,1-.79,1-.42,0-.83,0-1.25,0-3.66,0-7.32,0-11,0-1,0-2.08.09-3.12.14l-15.78-.08a1.1,1.1,0,0,0-.61.11c-.24.17-.53.41-.57.66a11.8,11.8,0,0,0-.13,1.88q-.11,9.47-.19,18.93a4.74,4.74,0,0,0,.16,1.24.67.67,0,0,0,.42.42,4.58,4.58,0,0,0,1.23.19c2.31,0,4.63.07,6.94.06,2.84,0,5.68-.08,8.52-.13.83,0,1.65.13,2.48.13q11.27,0,22.51,0c.73,0,1.45-.06,2.18-.09a3.68,3.68,0,0,1,1.33,1.3c1,1.75,2,3.47,3,5.19,2.13,3.61,4.3,7.2,6.65,10.68a4.63,4.63,0,0,1,.54,1.12.57.57,0,0,1-.26.48,14.56,14.56,0,0,1-1.87.13l-22.35,0q-9.6,0-19.2,0c-1,0-2.09.07-3.14.11l-8.18-.09c-.1,0-.2,0-.31,0a1,1,0,0,0-.87.77,10.37,10.37,0,0,0-.12,1.25q-.07,9.59-.14,19.19c0,.32,0,.63,0,.94,0,.79.4,1.2,1.11,1.23s1.25,0,1.88,0l21.73,0c.63,0,1.26-.07,1.88-.11,1.15,0,2.3.12,3.45.13q12.9,0,25.8,0c.52,0,1-.06,1.56-.1a1,1,0,0,0,.78-.84c0-.42.1-.84.1-1.25-.06-6.08.34-12.15.43-18.23a4.82,4.82,0,0,1,.94.78c1.68,2.25,3.34,4.51,5,6.8a20.55,20.55,0,0,1,1.08,1.89c0,1,0,2,0,3-.2,0-.27.44-.11.72a33.58,33.58,0,0,0-.17,6.26,1,1,0,0,0,.8.85,4.36,4.36,0,0,0,.62.07l7.84-.1a16.19,16.19,0,0,1,1.68,1.4c1.43,1.5,2.79,3.09,4.24,4.59q3.38,3.47,6.85,6.86c1.12,1.09,2.3,2.11,3.48,3.14.62.54,1.3,1,2,1.55a1.41,1.41,0,0,1,.39,1.81,2.64,2.64,0,0,0-1.79-.43l-24.25-.06c-.31,0-.63,0-.94,0a1.05,1.05,0,0,0-1.07.93c-.05.63-.1,1.26-.11,1.88,0,3.68,0,7.35-.1,11,0,2.2-.08,4.4-.22,6.6-.18,2.87-.14,3,2.83,3h23l5,0a2.78,2.78,0,0,1,.42.82c.13,1.46-.05,2.94.59,4.34a3.92,3.92,0,0,1,.1,1.25,5.35,5.35,0,0,0,.1,1.56,14.43,14.43,0,0,1,.55,5,2.59,2.59,0,0,0,.1.93c.71,1.61.47,3.31.51,5q-6.78-.06-13.56-.1c-.94,0-1.88.09-2.83.14-.31,0-.62-.11-.93-.12-4.72,0-9.44,0-14.16,0-1.78,0-2,.21-2,2,0,.2,0,.41,0,.62-.12,6.5.05,13-.34,19.49,0,.25.27.52.42.78s.51.41.78.43a20,20,0,0,0,2.19.07l30.16,0c1.15,0,2.3,0,3.45.07a1.36,1.36,0,0,1,1.33.77c.09.61.16,1.22.28,1.82l1.83,9.34a1.89,1.89,0,0,0-1.21.93,9.54,9.54,0,0,0-.88,3c-.06,1.89-.91,3.64-.79,5.54a1.74,1.74,0,0,1-.19.6,1.86,1.86,0,0,1-1.85,1.4c-.93,0-1.88,0-2.82,0l-23.19,0a3.21,3.21,0,0,1-.86.32c-.84.05-1.68,0-2.52,0q-12.63,0-25.25,0l-31.57-.11q-14,0-28.09-.09c-1.05,0-2.11-.05-3.16-.08a9.79,9.79,0,0,1-4.77-1.48,7.42,7.42,0,0,1-4-7c.08-2.74.11-5.47.17-8.2q.45-19.71.89-39.42.3-13.1.61-26.17.36-14.5.71-29c.18-7.68.34-15.35.52-23q.33-14.36.68-28.7.3-13.08.61-26.17.34-14.36.69-28.7c.19-7.67.35-15.34.53-23,.06-2.53.17-5,.24-7.57C11.78,522.87,11.75,522.13,11.74,521.39Zm20.5,203.82a26.07,26.07,0,0,0-.46,5c-.09,5.35-.11,10.69-.15,16,0,.32,0,.63.05.94a1,1,0,0,0,.8.83c1.15,0,2.3,0,3.45,0a5.2,5.2,0,0,0,2.78.33l33.11.07,14.51.05c.74,0,1.47,0,2.21,0a1.17,1.17,0,0,0,1.25-1.13c.12-2.09.27-4.19.31-6.28.08-4.31.11-8.62.15-12.92,0-3.26,0-3.27-3.33-3.28l-39.74-.07c-2.31,0-4.62,0-6.94,0H33.31A1.16,1.16,0,0,0,32.24,725.21Zm.07-20.15c.11.85.29,1.14.72,1.16s1,0,1.57,0l53,.05c.63,0,1.26,0,1.88-.06a1,1,0,0,0,.88-.75,4.44,4.44,0,0,0,.1-.62c0-4,.12-8,.34-11.95.13-2.52.08-5,.1-7.56,0-.52,0-1-.08-1.57a1,1,0,0,0-.85-.79c-.42,0-.84-.07-1.25-.07l-9.14-.05-26.48,0c-1,0-2.09.09-3.14.14a1.54,1.54,0,0,0-.31,0l-16-.07c-.1,0-.21,0-.31,0a1,1,0,0,0-.85.8c0,.62-.08,1.25-.08,1.87-.05,5-.11,10.06-.13,15.08C32.2,702.13,32.28,703.6,32.31,705.06Z"/><path class="cls-10" d="M106.38,772l23.19,0c.94,0,1.89,0,2.82,0a1.86,1.86,0,0,0,1.85-1.4,1.74,1.74,0,0,0,.19-.6c-.12-1.9.73-3.65.79-5.54a9.54,9.54,0,0,1,.88-3,1.89,1.89,0,0,1,1.21-.93c.17.26.33.53.51.79a2.48,2.48,0,0,0,2.09,1.16c1.35,0,2.7.06,4-.05a3.2,3.2,0,0,0,3-3.06,12.93,12.93,0,0,0-.08-1.86,11.46,11.46,0,0,1,1.45.56,51.4,51.4,0,0,1,8.54,6.32,27.7,27.7,0,0,1,5.3,5.76,3.79,3.79,0,0,0,3.72,1.86c1.77-.12,3.56,0,5.34,0l13.83,0c0,.19,0,.39,0,.59l-19.41-.09h-.31c-.69,0-.94.39-.66,1a31.81,31.81,0,0,1,2.15,4.85c0,.41.1.82.12,1.23s0,.83,0,1.24a29.56,29.56,0,0,0-3.13.24,38.32,38.32,0,0,1-5.65.46c-1.57.08-3.15.07-4.72.21a93.89,93.89,0,0,1-13.83,0c-1.67-.14-3.35-.11-5-.15a2.67,2.67,0,0,1-.62-1.74c-.07-1.67-.13-3.34-.19-5,0-.52,0-1,0-1.57a.87.87,0,0,0-.84-.75c-.84,0-1.67-.05-2.51-.05l-20.39,0c-.94,0-1.89,0-2.83,0A2.6,2.6,0,0,1,106.38,772Z"/><path class="cls-16" d="M134.58,781.54c1.68,0,3.36,0,5,.15a93.89,93.89,0,0,0,13.83,0c1.57-.14,3.15-.13,4.72-.21a38.32,38.32,0,0,0,5.65-.46,29.56,29.56,0,0,1,3.13-.24l.4,0a2.44,2.44,0,0,1-.74,1.69,2.68,2.68,0,0,1-1.3.8,32.86,32.86,0,0,1-6.85.72h-3.6a1.9,1.9,0,0,0-1.38.49l-.15.1-.18,0-10.78,0-.27-.06a3.51,3.51,0,0,0-1-.47c-.88-.08-1.77,0-2.66,0a4.37,4.37,0,0,1-2.69-.67A1.87,1.87,0,0,1,134.58,781.54Z"/><path class="cls-3" d="M138.4,783.93c.89,0,1.78,0,2.66,0a3.51,3.51,0,0,1,1,.47A6,6,0,0,1,138.4,783.93Z"/><path class="cls-5" d="M202.07,737.22c-.17-1-.41-2.06-.5-3.1-.18-2.09-.3-4.19-.57-6.28-.4-3.12-.53-6.27-.83-9.41-.31-3.34-.68-6.68-1-10,0-.21-.06-.42-.08-.63-.27-3-.51-6.06-.81-9.09s-.7-6.26-1-9.39c-.23-2.09-.35-4.18-.65-6.27-.41-2.91-.55-5.85-.86-8.77-.28-2.72-.63-5.42-1-8.13,0-.31-.1-.63-.13-.94-.27-2.82-.51-5.65-.83-8.46s-.7-5.41-1-8.12-.54-5.23-.82-7.83q-.37-3.62-.8-7.2-.54-4.55-1.1-9.07c-.33-2.7-.68-5.41-1-8.12-.24-1.87-.49-3.74-.71-5.62-.28-2.4-.52-4.8-.81-7.2s-.67-5-1-7.49c-.26-2-.52-4-.76-5.93-.49-4-.93-7.92-1.45-11.88s-1.09-7.69-1.62-11.53c-.27-1.87-.49-3.75-.75-5.62-.38-2.81-.79-5.61-1.17-8.42-.1-.73-.14-1.46-.19-2.2A1.88,1.88,0,0,1,181,549a3.9,3.9,0,0,0,.68-3.86,42.93,42.93,0,0,1-1.18-10.29,80.68,80.68,0,0,1,1.2-13.79c1-5.91,2.35-11.73,3.89-17.51q2.24-8.37,4.53-16.72c.2-.71.46-1.4.69-2.1a1.74,1.74,0,0,1,1.57.88,27.54,27.54,0,0,1,1.38,2.84c1,2.54,2,5.05,3.21,7.51.73,1.52,1.5,3,2.25,4.52,3.14,6.29,6.2,12.62,9.92,18.61,2.11,3.38,4.11,6.83,6.4,10.09,1.2,1.71,2.44,3.4,3.63,5.13,1,1.46,2.06,2.9,3.11,4.33a25.75,25.75,0,0,0,2.11,2.73c1.53,1.59,2.58,3.58,4.29,5a4.76,4.76,0,0,1,.53.77c.53.65,1,1.33,1.61,1.93,1.16,1.21,2.39,2.37,3.55,3.58a18.39,18.39,0,0,1,1.17,1.47c-.38.33-.38.33,0,.63h0a8,8,0,0,0,.18,1.56c1.18,3.8,2.66,7.5,4,11.23,1.12,3,2.35,6,3.39,9.12.71,2.09,1.28,4.22,2.12,6.25,1.48,3.59,2.66,7.28,4,10.9,1.45,3.81,2.69,7.71,4,11.56.11.3.26.58.39.86a31.35,31.35,0,0,1,2.06,6.25,6,6,0,0,0,.41,1.19,43.27,43.27,0,0,1,1.52,4.12c1.4,3.84,2.37,7.83,4.06,11.56a2.48,2.48,0,0,1,.25.91,5.82,5.82,0,0,0,.78,2.37,10.05,10.05,0,0,1,.56,1.79c.41,1.51.94,3,1.44,4.47.06.18.28.3.43.45a20.13,20.13,0,0,0,.76,3.22c.33.82.24,1.85,1.08,2.44l.44.63c0,1.16.09,2.31.09,3.47q0,59,0,118a9.33,9.33,0,0,1-.3,3.75c-.73,0-1.47-.06-2.21,0a63.9,63.9,0,0,1-18.31-2.89l-3.63-1-.87-.36a85.47,85.47,0,0,1-25.19-15.07c-1.18-1-2.44-2-3.67-2.93a1.15,1.15,0,0,0-.14-.27c-.78-.84-1.6-1.65-2.35-2.52s-1.34-1.87-2.12-2.69c-1.74-1.82-3.55-3.56-5.33-5.32A2.11,2.11,0,0,0,202.07,737.22Z"/><path class="cls-7" d="M185,772.57c0-.2,0-.4,0-.59a1.73,1.73,0,0,0,.6-1.05,38.58,38.58,0,0,1,.78-4.57c.65-2.28,1.5-4.51,2.31-6.75.13-.36.51-.62.78-.93.17.38.36.74.51,1.13a2.1,2.1,0,0,0,2.13,1.47c1.55,0,3.1,0,4.65-.13a4.48,4.48,0,0,0,3.44-1.82,9.23,9.23,0,0,1,4,.58c1.36.53,2.75,1,4.1,1.54,5,2.15,6.57,2.69,11.57,6.13,2.06,1.42,4.11,2.85,6,4.47a2.28,2.28,0,0,0,1.43.52c0,.24,0,.48,0,.72l.49.53H228V774l.48.47.15.16.47.48.16,0v.16l.44.46.18,0V776a.56.56,0,0,0,.33.36,12,12,0,0,1,2.23,2.53c-.23,1.1-.32,1.25-1,1.28-4,.16-7.92.77-11.91.75a62.77,62.77,0,0,0-6.28.23c-2.09.2-4.18.2-6.27.27-4.83.17-9.63-.3-14.44-.59a18,18,0,0,1-2.17-.32l-5.24-1a7,7,0,0,1-.21-2.7C185,775.4,185,774,185,772.57Z"/><path class="cls-11" d="M227.36,772.57a2.28,2.28,0,0,1-1.43-.52c-1.91-1.62-4-3-6-4.47-5-3.44-6.56-4-11.57-6.13-1.35-.57-2.74-1-4.1-1.54a9.23,9.23,0,0,0-4-.58c0-1.16,0-2.31,0-3.46-.05-2-.14-4-.19-6a1.08,1.08,0,0,1,1.11-1.23c2.1,0,4.2,0,6.3,0l6-.08c1.23,1,2.49,1.91,3.67,2.93a85.47,85.47,0,0,0,25.19,15.07l.87.36c-1.94,3.72-5.21,5.34-9.2,5.64C231.78,772.7,229.57,772.57,227.36,772.57Z"/><path class="cls-5" d="M185.12,779.52l5.24,1a18,18,0,0,0,2.17.32c4.81.29,9.61.76,14.44.59,2.09-.07,4.18-.07,6.27-.27a62.77,62.77,0,0,1,6.28-.23c4,0,7.94-.59,11.91-.75.69,0,.78-.18,1-1.28.68.29.81.9.92,1.53a2.11,2.11,0,0,1-.5,1.75,1.93,1.93,0,0,1-1,.65,15,15,0,0,1-2.5.23c-3.88,0-7.76.07-11.63.09l-29.57.14a10.61,10.61,0,0,1-1.87-.1,1.5,1.5,0,0,1-1.19-.93A2.77,2.77,0,0,1,185.12,779.52Z"/><path class="cls-3" d="M153.47,784.41a1.9,1.9,0,0,1,1.38-.49h3.6A10.4,10.4,0,0,1,153.47,784.41Z"/><path class="cls-3" d="M167.34,780.72l-.4,0c0-.41,0-.82,0-1.24s-.08-.82-.12-1.23A2.17,2.17,0,0,1,167.34,780.72Z"/><path class="cls-11" d="M227.84,773.82l-.49-.53A.49.49,0,0,1,227.84,773.82Z"/><path class="cls-11" d="M228.48,774.46,228,774A.43.43,0,0,1,228.48,774.46Z"/><path class="cls-11" d="M229.1,775.1l-.47-.48A.41.41,0,0,1,229.1,775.1Z"/><path class="cls-11" d="M229.69,775.74l-.44-.46A.4.4,0,0,1,229.69,775.74Z"/><path class="cls-11" d="M230.21,776.32a.56.56,0,0,1-.33-.36Q230.26,776,230.21,776.32Z"/><path class="cls-17" d="M339.15,418.48a5.21,5.21,0,0,0,1.92-1.84,22.69,22.69,0,0,1,2.34.91c2.34,1.17,4.65,2.42,7,3.61a10.85,10.85,0,0,1,2.6,1.74c0,1.37-.06,2.73-.06,4.1V654.51c0,.84,0,1.68,0,2.52,0,.53,0,1.05,0,1.58a6.17,6.17,0,0,0,5.57,5.51c1.26,0,2.52,0,3.79,0H646.17c1.06,0,2.11,0,3.16,0a6.19,6.19,0,0,0,5.65-5.78c0-1,0-1.89,0-2.84V286.63c0-.95,0-1.9,0-2.84a6.39,6.39,0,0,0-6-6.11c-1.27,0-2.53,0-3.79,0H361.31c-.95,0-1.89,0-2.84,0a6.19,6.19,0,0,0-5.5,5.59c0,.95,0,1.89,0,2.84v37.24c0,.94,0,1.89.06,2.83a1.34,1.34,0,0,1-1.3-.68c-1.77-2.61-3.74-5.07-5.76-7.5A60,60,0,0,0,335,308a61.38,61.38,0,0,0-8-5.09,2.85,2.85,0,0,1-1.51-1.91c.06-1.15.18-2.31.19-3.46q0-16.87,0-33.76,0-1.74,0-3.48a19.53,19.53,0,0,1,4-11.41A20.92,20.92,0,0,1,344,240.37a32.61,32.61,0,0,1,5-.36H658.49a28.92,28.92,0,0,1,7.8,1A20.67,20.67,0,0,1,679,250.72a21.84,21.84,0,0,1,3,11.12c0,1.05,0,2.1,0,3.15V671.15c0,1.05,0,2.1,0,3.16A21.8,21.8,0,0,1,677.9,687a20.81,20.81,0,0,1-14.11,8.68,34.07,34.07,0,0,1-5.33.4H349a26.41,26.41,0,0,1-9.58-1.58,20.87,20.87,0,0,1-11.84-11.17,18.66,18.66,0,0,1-1.82-8.24c0-1.36,0-2.73,0-4.1q0-118.66,0-237.32c0-1.47-.1-2.94-.16-4.41a5.44,5.44,0,0,1,1.64-1.41,79.08,79.08,0,0,0,9.13-6.5A9.82,9.82,0,0,0,339.15,418.48Z"/><path class="cls-17" d="M235.57,554.18a18.39,18.39,0,0,0-1.17-1.47c-1.16-1.21-2.39-2.37-3.55-3.58-.58-.6-1.08-1.28-1.61-1.93a4.76,4.76,0,0,0-.53-.77c-1.71-1.44-2.76-3.43-4.29-5a25.75,25.75,0,0,1-2.11-2.73c-1.05-1.43-2.1-2.87-3.11-4.33-1.19-1.73-2.43-3.42-3.63-5.13-2.29-3.26-4.29-6.71-6.4-10.09-3.72-6-6.78-12.32-9.92-18.61-.75-1.51-1.52-3-2.25-4.52-1.17-2.46-2.22-5-3.21-7.51a27.54,27.54,0,0,0-1.38-2.84,1.74,1.74,0,0,0-1.57-.88,15.89,15.89,0,0,1,.86-3.65c1.82-6.66,3.47-13.36,4.83-20.13a12.43,12.43,0,0,1,.52-1.48c1.67,0,3.37-.21,5,.5,2.51.08,4.93,1,7.48.78a5.53,5.53,0,0,1,2.19.16,11.82,11.82,0,0,0,4.05.44h18a8.46,8.46,0,0,0,3.42-.39,2,2,0,0,1,.92-.18c2.23.21,4.34-.69,6.54-.74,1,0,2-.68,3.08-.6,1.8-.55,3.71-.62,5.48-1.3a3.47,3.47,0,0,0,.75-.54,8.81,8.81,0,0,0,2.77-.44,61.46,61.46,0,0,0,9.44-4.15,2.25,2.25,0,0,0,.43-.44c.59-.27,1.1-.75,1.81-.68a3.2,3.2,0,0,0-.68,1.73c0,1,0,2.1,0,3.15q0,60.54,0,121.09a11.82,11.82,0,0,1-.27,4.06,13.57,13.57,0,0,1-4.05-2.87,10.42,10.42,0,0,0-1.39-1.27,92.63,92.63,0,0,1-8.35-6.56,3.43,3.43,0,0,0-.76-.55,6.17,6.17,0,0,1-2-1.56,45,45,0,0,0-5.63-5,2.62,2.62,0,0,0-1.44-.56c-.12-.39-.14-.89-.39-1.16a77.77,77.77,0,0,0-7.84-7.67h0C235.59,554.6,235.58,554.39,235.57,554.18Z"/><path class="cls-18" d="M266.54,452.61a2.25,2.25,0,0,1-.43.44,61.46,61.46,0,0,1-9.44,4.15,8.81,8.81,0,0,1-2.77.44,14.14,14.14,0,0,0-.46-1.48,1.66,1.66,0,0,0-1.09-1.05,8.88,8.88,0,0,0-2.73-.67,3.58,3.58,0,0,1-2.06-.68.82.82,0,0,1-.24-1.1c1.5-1.89,1.82-4.17,2.17-6.45a1.63,1.63,0,0,1,.79-1.27l.27-.16a3.42,3.42,0,0,0,2.08-3.54l3.14-.06c.7,0,1.43.13,1.9-.59l1.89,0a1.28,1.28,0,0,0,1.27-.58,11,11,0,0,0,4.2-.7,9.52,9.52,0,0,1,2.65-.71c.25,0,.49-.32.74-.5,1.35-.78,2.91-1.18,4.22-2.23.45-1.53.93-3.13,1.4-4.72.38-.5.75-1,1.15-1.49A17.68,17.68,0,0,1,284,424a.59.59,0,0,1,.75.68c-.07.62-.19,1.24-.23,1.86,0,.15.22.35.38.46a1.2,1.2,0,0,0,.57.21c.73.06,1.47.08,2.2.13l7.51.49c.83.05,1.67.07,2.5.12l12.21.74a2.93,2.93,0,0,1,.6.15c.89.8.63,1.95.9,2.93,0,1.06,0,2.12,0,3.17-.24,1.13-.47,2.25-.7,3.38A11.3,11.3,0,0,1,303.4,447a9,9,0,0,1-2.44.57,19.45,19.45,0,0,1-4.7-.19c-2.79-.42-5.58-.9-8.36-1.36-1.45-.23-2.9-.42-4.34-.71a9.93,9.93,0,0,0-7.2,1.48c-1,.59-1.93,1.23-2.89,1.85-.08-.42-.18-.85-.62-1a1.83,1.83,0,0,0-.9,0,3,3,0,0,0-.85.39,18.43,18.43,0,0,1-4.07,2.21c-.22.07-.39.49-.43.77A13.3,13.3,0,0,0,266.54,452.61Z"/><path class="cls-19" d="M325.56,301a2.85,2.85,0,0,0,1.51,1.91,61.38,61.38,0,0,1,8,5.09,60,60,0,0,1,10.9,10c2,2.43,4,4.89,5.76,7.5a1.34,1.34,0,0,0,1.3.68,10.55,10.55,0,0,0,.45,1.48c.47,1,1,2,1.5,3.05a9.81,9.81,0,0,1-4.45-1.3,44.08,44.08,0,0,0-4.33-1.76c-1.26-.46-2.56-.86-3.78-1.44-2.35-1.11-4.92-1.66-7.25-2.84a1.71,1.71,0,0,0-1.51,0l-.85.39c-.32-.25-.66-.49-1-.76A59.29,59.29,0,0,0,315,312.28,54.14,54.14,0,0,0,294.26,308l-5.64,0a1.73,1.73,0,0,1,1.09-.54c.51-.06,1-.16,1.51-.26.08,0,.2-.14.19-.21a1,1,0,0,0-.12-.56,2.07,2.07,0,0,0-.76-.52c-3.13-1.11-6.14-2.52-9.3-3.58-2.56-.85-5-2-7.52-3a8.92,8.92,0,0,0-2.67-.83c-.25,0-.49-.34-.73-.53.61-.88,1.74-.64,2.52-1.17a19.34,19.34,0,0,0,3.64-1c1.52-.35,3-.69,4.58-1,1.23-.24,2.46-.51,3.7-.63s2.31,0,3.46,0a12,12,0,0,0,2.17-.26,2.88,2.88,0,0,1,1.54,0,4.07,4.07,0,0,0,1.53.23,11.67,11.67,0,0,1,4,0,21.48,21.48,0,0,0,3.77.09,11.65,11.65,0,0,1,1.85.28c.42.07.81.24,1.22.29a50.72,50.72,0,0,1,8.55,1.92c1.3.39,2.59.85,3.88,1.27a32.87,32.87,0,0,1,4.67,1.85A10.46,10.46,0,0,0,325.56,301Z"/><path class="cls-20" d="M489.44,193.2c-.38-2.87.87-5.4,2.42-7.82,2.17-3.41,5.5-5,9.26-6a14.82,14.82,0,0,1,12.63,4.33,13.81,13.81,0,0,1,3.55,7.23c.43,2.88.54,2.9-.08,5.57a13.2,13.2,0,0,1-6.9,9.28c-.47.24-.94.47-1.42.69a13.28,13.28,0,0,1-10.7.14,17,17,0,0,1-4.3-2.59,6.15,6.15,0,0,1-1.08-1.14,21.1,21.1,0,0,1-2.7-4.61,7.41,7.41,0,0,1-.68-3Z"/><path class="cls-5" d="M243.81,563.63a2.62,2.62,0,0,1,1.44.56,45,45,0,0,1,5.63,5,6.17,6.17,0,0,0,2,1.56,3.43,3.43,0,0,1,.76.55,92.63,92.63,0,0,0,8.35,6.56,10.42,10.42,0,0,1,1.39,1.27,13.57,13.57,0,0,0,4.05,2.87,8.6,8.6,0,0,1,.25,3.11q0,9.75,0,19.48,0,11.16,0,22.31a7,7,0,0,1-.3,3.09l-1.21-.29a34.56,34.56,0,0,1-1.42-4.56c-.29-1.58-1.32-2.86-1.57-4.43,0-.3-.23-.59-.3-.89a73.6,73.6,0,0,0-3.56-10.72,26.27,26.27,0,0,1-1.47-4.47,22.53,22.53,0,0,0-2-5.6,6.63,6.63,0,0,1-.61-1.77,8.65,8.65,0,0,0-.56-1.79c-.45-1.06-.88-2.13-1.24-3.22-1.79-5.37-3.48-10.77-5.34-16.11a96.8,96.8,0,0,0-3.48-9.76A15.93,15.93,0,0,1,243.81,563.63Z"/><path class="cls-13" d="M243.81,563.63a15.93,15.93,0,0,0,.76,2.71,96.8,96.8,0,0,1,3.48,9.76c1.86,5.34,3.55,10.74,5.34,16.11.36,1.09.79,2.16,1.24,3.22a8.65,8.65,0,0,1,.56,1.79,6.63,6.63,0,0,0,.61,1.77,22.53,22.53,0,0,1,2,5.6,26.27,26.27,0,0,0,1.47,4.47,73.6,73.6,0,0,1,3.56,10.72c.07.3.26.59.3.89.25,1.57,1.28,2.85,1.57,4.43a34.56,34.56,0,0,0,1.42,4.56l1.21.29a2.08,2.08,0,0,1-.06,1.91,1.1,1.1,0,0,0-.71.92c0,1.55,0,3.09-.05,4.64a2.06,2.06,0,0,1-1.24,2c-.15-.15-.37-.27-.43-.45-.5-1.48-1-3-1.44-4.47a10.05,10.05,0,0,0-.56-1.79,5.82,5.82,0,0,1-.78-2.37,2.48,2.48,0,0,0-.25-.91c-1.69-3.73-2.66-7.72-4.06-11.56a43.27,43.27,0,0,0-1.52-4.12,6,6,0,0,1-.41-1.19,31.35,31.35,0,0,0-2.06-6.25c-.13-.28-.28-.56-.39-.86-1.34-3.85-2.58-7.75-4-11.56-1.38-3.62-2.56-7.31-4-10.9-.84-2-1.41-4.16-2.12-6.25-1-3.07-2.27-6.08-3.39-9.12-1.37-3.73-2.85-7.43-4-11.23a8,8,0,0,1-.18-1.56,77.77,77.77,0,0,1,7.84,7.67C243.67,562.74,243.69,563.24,243.81,563.63Z"/><path class="cls-21" d="M311.38,434.89c0-1.05,0-2.11,0-3.17a3.73,3.73,0,0,0,.95,0c2.19-.71,4.4-1.38,6.56-2.18a54.28,54.28,0,0,0,7.72-3.52,44.1,44.1,0,0,0,6.11-3.84c1.46-1.17,3.16-2.05,4.58-3.3a2.52,2.52,0,0,1,1.81-.36,9.82,9.82,0,0,1-2.79,2.88,79.08,79.08,0,0,1-9.13,6.5,5.44,5.44,0,0,0-1.64,1.41,5.91,5.91,0,0,0-2.31.94,71,71,0,0,1-8,3.63A10.15,10.15,0,0,1,311.38,434.89Z"/><path class="cls-3" d="M265.27,639.39a2.06,2.06,0,0,0,1.24-2c0-1.55,0-3.09.05-4.64a1.1,1.1,0,0,1,.71-.92,7.55,7.55,0,0,1,.31,1.53c0,3.87,0,7.75-.05,11.62a1.16,1.16,0,0,0-.42,0c-.84-.59-.75-1.62-1.08-2.44A20.13,20.13,0,0,1,265.27,639.39Z"/><path class="cls-9" d="M266.54,452.61a13.3,13.3,0,0,1,.06-1.55c0-.28.21-.7.43-.77a18.43,18.43,0,0,0,4.07-2.21,3,3,0,0,1,.85-.39,1.83,1.83,0,0,1,.9,0c.44.15.54.58.62,1a21.25,21.25,0,0,1-5.12,3.25C267.64,451.86,267.13,452.34,266.54,452.61Z"/><path class="cls-17" d="M267.11,645.05a1.16,1.16,0,0,1,.42,0c0,.23,0,.45,0,.67Z"/><path class="cls-6" d="M91.47,643.76C91.38,649.84,91,655.91,91,662c0,.41-.06.83-.1,1.25a1,1,0,0,1-.78.84c-.52,0-1,.11-1.56.1q-12.9,0-25.8,0c-1.15,0-2.3-.09-3.45-.13l0-22.71H87.76c.53,0,1,0,1.58,0a1.64,1.64,0,0,1,1.44,1C91,642.87,91,643.43,91.47,643.76Z"/><path class="cls-22" d="M59.38,641.3l0,22.71c-.62,0-1.25.11-1.88.11l-21.73,0c-.63,0-1.25,0-1.88,0s-1.07-.44-1.11-1.23c0-.31,0-.62,0-.94q.06-9.6.14-19.19a10.37,10.37,0,0,1,.12-1.25,1,1,0,0,1,.87-.77c.11,0,.21,0,.31,0l8.18.09a1.56,1.56,0,0,0,1.09.53l2.5,0Z"/><path class="cls-14" d="M155.75,342.12a1.1,1.1,0,0,1,0,.31c0,4.49,2.11,8.05,5,11.25.77.86,1.64,1.63,2.44,2.45a.74.74,0,0,1,.12.87,2.24,2.24,0,0,1-.36.51,6.17,6.17,0,0,0-.43.46,2.47,2.47,0,0,0,.35,3.64l1.33,1.32a35.19,35.19,0,0,0,2,5.24c.31.77.77,1.48,1.15,2.22a1.46,1.46,0,0,0,1.28.75c-1,1.43-2.1,2.85-3.12,4.3a1.67,1.67,0,0,1-1.29.75c-.8-1.82-1.66-3.62-2.38-5.48-1-2.54-2.18-5-3.17-7.53-.88-2.25-2-4.4-2.81-6.66-.7-1.86-1.6-3.65-2.39-5.48-.91-2.12-1.76-4.26-2.61-6.4-.74-1.85-1.59-3.65-2.35-5.49-.84-2-1.67-4.08-2.67-6a27,27,0,0,1-1.56-3.77,30.22,30.22,0,0,0-1.89-4.32,11.75,11.75,0,0,1-1-2.63,22.65,22.65,0,0,0-1.77-4c-1-2.3-2-4.6-3-6.92-.7-1.64-1.34-3.3-2-4.94-.32-.78-.64-1.55-1-2.32-1.45-3.25-3-6.46-4.29-9.79a10.87,10.87,0,0,0-.68-1.42,48.88,48.88,0,0,1-2.75-6.35c-.47-1.17-1-2.3-1.51-3.46-1-2.4-2.07-4.81-3.11-7.21-.2-.49-.38-1-.61-1.45a28.12,28.12,0,0,1-2.15-4.9c-1.43-2.57-2.37-5.37-3.65-8-1.14-2.35-2.12-4.78-3.1-7.22-.78-1.94-1.55-3.9-2.5-5.76-1.4-2.72-2.6-5.51-3.76-8.32-.89-2.14-1.9-4.21-2.86-6.3a1.14,1.14,0,0,1-.15-.6,1.7,1.7,0,0,1,.33-.83.86.86,0,0,1,1.14.06,5.84,5.84,0,0,1,.53.77c1.66,3.28,3.3,6.57,4.95,9.86a15.71,15.71,0,0,0,1.65,3.37c.8,1,.73,2.42,1.65,3.36,1.54,4,3.87,7.7,5.53,11.67,1.22,2.91,2.71,5.68,4,8.55.9,2,1.85,4,2.73,6s2,3.73,2.75,5.67c.87,2.14,2,4.18,2.86,6.3,1.25,3,2.8,5.88,4.08,8.86,1,2.22,2.15,4.34,3,6.59,1.21,3.25,3.14,6.18,4.2,9.49a16.66,16.66,0,0,0,.83,1.7,17.14,17.14,0,0,1,1.47,3.47,5.15,5.15,0,0,0,.52,1.15,111,111,0,0,1,4.72,10.64c.26.68.64,1.32,1,2a50.8,50.8,0,0,1,2.19,4.88,42.09,42.09,0,0,0,2.23,4.52A1.31,1.31,0,0,0,155.75,342.12Z"/><path class="cls-22" d="M60,579.43c-4.09,0-8.17.05-12.26.06s-8,0-11.95,0a8.07,8.07,0,0,1-1.55-.16.72.72,0,0,1-.44-.4,2.33,2.33,0,0,1-.16-.91c0-3.76-.05-7.53.21-11.3.19-2.6.11-5.23.12-7.85,0-3,0-3,2.93-3l16.67,0a5.72,5.72,0,0,1,1.36,3.38A76.2,76.2,0,0,0,57,568.37c1,3.15,1.89,6.34,2.8,9.52A8.64,8.64,0,0,1,60,579.43Z"/><path class="cls-9" d="M77.69,621.75c-.73,0-1.45.09-2.18.09q-11.25,0-22.51,0c-.83,0-1.65-.08-2.48-.13q0-11.36,0-22.73H64.4c.73,0,1.47,0,2.2.06A1.6,1.6,0,0,1,68,600.12a69.27,69.27,0,0,0,3.49,8.06c.56,2.26,2.15,4.06,2.84,6.26,1,1.23,1.33,2.82,2.26,4.09A4.8,4.8,0,0,1,77.69,621.75Z"/><path class="cls-3" d="M54.2,451.4l-16.08,0c-.63,0-1.25,0-1.88-.07a1,1,0,0,1-1-1c0-.63,0-1.26,0-1.89q.06-9,.14-17.95c0-.83.14-1.66.22-2.5,5.87,0,11.75,0,17.63,0,2.12,0,2.32.22,2.33,2.35,0,3.67,0,7.34,0,11a5,5,0,0,1-.1,1.56c-.72,1.93-.47,3.93-.53,5.91,0,.53,0,1.05-.08,1.57A1.58,1.58,0,0,1,54.2,451.4Z"/><path class="cls-3" d="M50.54,599q0,11.37,0,22.73c-2.84,0-5.68.11-8.52.13-2.31,0-4.63,0-6.94-.06a4.58,4.58,0,0,1-1.23-.19.67.67,0,0,1-.42-.42,4.74,4.74,0,0,1-.16-1.24q.07-9.47.19-18.93a11.8,11.8,0,0,1,.13-1.88c0-.25.33-.49.57-.66a1.1,1.1,0,0,1,.61-.11l15.78.08A5,5,0,0,0,50.54,599Z"/><path class="cls-3" d="M48.6,494.27H37.3a11.6,11.6,0,0,1-1.87-.13,1,1,0,0,1-.61-.6,3.91,3.91,0,0,1-.1-1.24q.06-10,.13-20.08a1.85,1.85,0,0,1,.44-1.44l10.06.11c1.57,0,3.15,0,4.72.07a1.05,1.05,0,0,1,1,1,7.55,7.55,0,0,1-.19,1.85,7.64,7.64,0,0,0-.36,2.16,10.18,10.18,0,0,1-.49,3.71,5.76,5.76,0,0,0-.14,1.87,10.24,10.24,0,0,1-.47,3.72,4.65,4.65,0,0,0-.15,1.55c0,.84-.06,1.68,0,2.51A13.11,13.11,0,0,1,48.6,494.27Z"/><path class="cls-3" d="M34.23,535.89c0-.73-.09-1.46-.08-2.19,0-5.31.06-10.62.15-15.93,0-1.34.24-2.69.37-4l9.74,0c.84,0,1.67,0,2.51,0,1.3,0,1.64.36,1.7,1.7a9.89,9.89,0,0,0,.42,3.09,5.66,5.66,0,0,1,.21,1.85c0,1.36,0,2.72,0,4.08a5.5,5.5,0,0,0,.14,1.87,11,11,0,0,1,.48,4,7.18,7.18,0,0,0,.36,2.47,5.28,5.28,0,0,1,.25,1.54c0,1.55-.18,2.07-2,2.07-4,0-7.95,0-11.93,0A4.32,4.32,0,0,1,34.23,535.89Z"/><path class="cls-3" d="M35.88,407.79a7.37,7.37,0,0,1-.11-.93q.09-10.1.19-20.18c0-.53,0-1.05.09-1.57a1,1,0,0,1,.85-.78c.63,0,1.26-.09,1.89-.09h6.63c.63,0,1.25-.07,1.88-.1a93.65,93.65,0,0,1,3.21,10.12c1,3.61,1.5,7.32,2.42,10.95a6.15,6.15,0,0,1,0,1.55,1.07,1.07,0,0,1-.79.87c-.83.05-1.66.11-2.5.11Q42.78,407.79,35.88,407.79Z"/><path class="cls-3" d="M107.39,664.07l-7.84.1a4.36,4.36,0,0,1-.62-.07,1,1,0,0,1-.8-.85,34.32,34.32,0,0,1,.16-6.25l.12-.73c0-1,0-2,0-3a3.68,3.68,0,0,1,1.81,1.69c.58,1.17,1.73,1.85,2.37,2.93a13.38,13.38,0,0,0,2.19,2.66A22.29,22.29,0,0,1,107.39,664.07Z"/><path class="cls-16" d="M147.29,698.75a92.25,92.25,0,0,1,.14-11c.14-2.1.25-4.2.3-6.3.07-2.52.1-5,.18-7.56,0-1.26.18-2.52.26-3.78s.13-2.3.18-3.46c.15-3.67.11-7.35.52-11,.26-2.4.15-4.83.26-7.25.08-1.67.25-3.35.36-5,.07-1.05.11-2.1.15-3.15a72.13,72.13,0,0,1,.5-8.18,24.33,24.33,0,0,0,.14-2.84,62.74,62.74,0,0,1,.51-7.86,17.91,17.91,0,0,0,.11-2.2c.11-2.41.15-4.83.48-7.23.25-1.77.18-3.57.27-5.36,0-.62.12-1.24.21-1.87,0-.07.12-.13.2-.18s.44-.13.51.14c.51,1.81,1.05,3.62,1.49,5.45,2.26,9.28,4.54,18.57,6.73,27.87,2.23,9.5,4.38,19,6.56,28.55,1.85,8.08,3.72,16.16,5.53,24.26s3.54,16.21,5.31,24.31c.07.31.2.6.3.9-.3,0-.64.24-.89.15a6.25,6.25,0,0,1-1.36-.75,160.5,160.5,0,0,0-14.61-8.44c-1.84-1-3.63-2-5.45-3.06a32,32,0,0,1-5.16-2.92c-.87-.57-1.69-1.22-2.57-1.77A5,5,0,0,0,147.29,698.75Z"/><path class="cls-11" d="M156.18,703.84c1.82,1,3.61,2.1,5.45,3.06a160.5,160.5,0,0,1,14.61,8.44,6.25,6.25,0,0,0,1.36.75c.25.09.59-.1.89-.15.28,1.1.53,2.21.84,3.3a16.61,16.61,0,0,1,.66,5.86c-1.05,0-2.09.11-3.14.11-3.88,0-7.77,0-11.65,0a9.7,9.7,0,0,0-1.87.16,1.13,1.13,0,0,0-.65.6,3.65,3.65,0,0,0-.2,1.23q-.12,9.75-.22,19.51a7.42,7.42,0,0,0,.06.94,1,1,0,0,0,.76.87c.41,0,.83.09,1.25.09q9.91,0,19.84,0a4.32,4.32,0,0,0,1.23-.19c.17,0,.29-.28.43-.43a4.06,4.06,0,0,0,2.3.64c1.52,0,3,.06,4.56.1a6.34,6.34,0,0,1-1.17.37c-.73.08-1.46.08-2.19.12-.9.06-1.24.49-1.1,1.47.09.61.26,1.22.34,1.84.25,2.07.92,4.08,1,6.18-.27.31-.65.57-.78.93-.81,2.24-1.66,4.47-2.31,6.75a38.58,38.58,0,0,0-.78,4.57,1.73,1.73,0,0,1-.6,1.05l-13.83,0c-1.78,0-3.57-.1-5.34,0a3.79,3.79,0,0,1-3.72-1.86,27.7,27.7,0,0,0-5.3-5.76,51.4,51.4,0,0,0-8.54-6.32,11.46,11.46,0,0,0-1.45-.56,11.53,11.53,0,0,1-.31-1.19c-.31-1.83-.59-3.67-.89-5.5a1.15,1.15,0,0,0-1-1c-.31,0-.63,0-.94,0l-5.58,0a2.82,2.82,0,0,1-1.78-.45c2.74,0,5.47-.11,8.2-.11a5.65,5.65,0,0,0,2.71-.68c2.3,0,4.6,0,6.9,0a1.09,1.09,0,0,0,1.06-.94c.05-.52.1-1,.11-1.56q.09-9.09.16-18.17c0-.52,0-1,0-1.56a1,1,0,0,0-1-1c-2.3,0-4.59,0-6.89,0a4.31,4.31,0,0,0-.91.22c0-2.9-.11-5.8-.13-8.7a5.63,5.63,0,0,1,.26-1.52,2.3,2.3,0,0,0,0-1.51,4,4,0,0,1,.07-3,2.34,2.34,0,0,0,0-1.8,7.65,7.65,0,0,1-.32-1.51,1.31,1.31,0,0,1,.51-1.08,65.68,65.68,0,0,0,8.3,0c.4,0,.55-.26.48-.64Z"/><path class="cls-22" d="M128.36,706.32l-5,0h-23c-3,0-3-.11-2.83-3,.14-2.2.18-4.4.22-6.6,0-3.67.06-7.34.1-11,0-.62.06-1.25.11-1.88A1.05,1.05,0,0,1,99,683c.31,0,.63,0,.94,0l24.25.06a2.64,2.64,0,0,1,1.79.43c.36,4.45.85,8.88,1.41,13.31C127.79,699.91,128,703.12,128.36,706.32Z"/><path class="cls-22" d="M185.83,748c-.14.15-.26.39-.43.43a4.32,4.32,0,0,1-1.23.19q-9.93,0-19.84,0c-.42,0-.84-.05-1.25-.09a1,1,0,0,1-.76-.87,7.42,7.42,0,0,1-.06-.94q.11-9.75.22-19.51a3.65,3.65,0,0,1,.2-1.23,1.13,1.13,0,0,1,.65-.6,9.7,9.7,0,0,1,1.87-.16c3.88,0,7.77,0,11.65,0,1.05,0,2.09-.07,3.14-.11a2.32,2.32,0,0,1,.65,1.38c.83,4,1.69,8,2.5,12,.48,2.35.9,4.72,1.34,7.09A3.73,3.73,0,0,0,185.83,748Z"/><path class="cls-13" d="M114.34,725.21c1-.05,1.89-.14,2.83-.14q6.78,0,13.56.1c.41,2.8.81,5.61,1.21,8.41q.9,6.39,1.79,12.79c.1.72.09,1.46.14,2.19-1.15,0-2.3-.07-3.45-.07l-30.16,0a20,20,0,0,1-2.19-.07c-.27,0-.52-.28-.78-.43h13.16c4.12,0,3.86.22,3.87-3.94Q114.32,734.61,114.34,725.21Z"/><path class="cls-15" d="M189.52,758.68c0-2.1-.7-4.11-1-6.18-.08-.62-.25-1.23-.34-1.84-.14-1,.2-1.41,1.1-1.47.73,0,1.46,0,2.19-.12a6.34,6.34,0,0,0,1.17-.37,27.2,27.2,0,0,0,6.47-.89,4.14,4.14,0,0,0,2.14-1.22,3,3,0,0,0,1-1.9,16.67,16.67,0,0,0,0-1.87c-.07-1.86-.15-3.73-.23-5.6a2.11,2.11,0,0,1,1.44.52c1.78,1.76,3.59,3.5,5.33,5.32.78.82,1.38,1.82,2.12,2.69s1.57,1.68,2.35,2.52a1.15,1.15,0,0,1,.14.27l-6,.08c-2.1,0-4.2,0-6.3,0a1.08,1.08,0,0,0-1.11,1.23c.05,2,.14,4,.19,6,0,1.15,0,2.3,0,3.46a4.48,4.48,0,0,1-3.44,1.82c-1.55.1-3.1.11-4.65.13a2.1,2.1,0,0,1-2.13-1.47C189.88,759.42,189.69,759.06,189.52,758.68Z"/><path class="cls-23" d="M146.67,725.47a4.31,4.31,0,0,1,.91-.22c2.3,0,4.59,0,6.89,0a1,1,0,0,1,1,1c0,.52,0,1,0,1.56q-.08,9.09-.16,18.17c0,.52-.06,1-.11,1.56a1.09,1.09,0,0,1-1.06.94c-2.3,0-4.6,0-6.9,0-.07-3.22-.13-6.45-.21-9.67-.06-2-.17-4-.24-5.92,0-1.35,0-2.7-.06-4.06C146.71,727.76,146.69,726.62,146.67,725.47Z"/><path class="cls-22" d="M136.32,749.34a2.82,2.82,0,0,0,1.78.45l5.58,0c.31,0,.63,0,.94,0a1.15,1.15,0,0,1,1,1c.3,1.83.58,3.67.89,5.5a11.53,11.53,0,0,0,.31,1.19,12.93,12.93,0,0,1,.08,1.86,3.2,3.2,0,0,1-3,3.06c-1.34.11-2.69.07-4,.05a2.48,2.48,0,0,1-2.09-1.16c-.18-.26-.34-.53-.51-.79l-1.83-9.34c-.12-.6-.19-1.21-.28-1.82Z"/><path class="cls-14" d="M155.37,706.31a65.68,65.68,0,0,1-8.3,0q.1-3.78.22-7.56a5,5,0,0,1,1.16.4c.88.55,1.7,1.2,2.57,1.77a32,32,0,0,0,5.16,2.92l-.33,1.83Z"/><path class="cls-17" d="M196.38,458.93a.64.64,0,0,1,.66.57Z"/><path class="cls-24" d="M354.94,330.74c-.5-1-1-2-1.5-3.05a10.55,10.55,0,0,1-.45-1.48c0-.94-.06-1.89-.06-2.83V286.14c0-.95,0-1.89,0-2.84a6.19,6.19,0,0,1,5.5-5.59c.95,0,1.89,0,2.84,0H645.16c1.26,0,2.52,0,3.79,0a6.39,6.39,0,0,1,6,6.11c0,.94,0,1.89,0,2.84V655.5c0,1,0,1.89,0,2.84a6.19,6.19,0,0,1-5.65,5.78c-1.05,0-2.1,0-3.16,0H362.33c-1.27,0-2.53,0-3.79,0a6.17,6.17,0,0,1-5.57-5.51c0-.53,0-1.05,0-1.58,0-.84,0-1.68,0-2.52V427c0-1.37,0-2.73.06-4.1a4.22,4.22,0,0,1,2.07.69c1.89.93,3.82,1.78,5.63,2.85s4,1.87,5.91,2.91a16.33,16.33,0,0,1,1.9,1.12,9.21,9.21,0,0,0,2.53,1.26,7.18,7.18,0,0,1,1.13.52c1.1.61,2.18,1.27,3.3,1.84,3.38,1.71,6.77,3.39,10.16,5.08.65.33,1.31.66,1.95,1a1.59,1.59,0,0,1,.78,1.29c0,.32,0,.63.06.95a33.46,33.46,0,0,0-.79,8.76q0,55.23,0,110.46c0,.94,0,1.89,0,2.84a20.48,20.48,0,0,0,5.64,14,23.9,23.9,0,0,0,17.63,7.9c1.16,0,2.32,0,3.48,0,5-.2,10.09-.42,15.13-.61,2.21-.09,4.43,0,6.63-.22,3.67-.34,7.36-.33,11-.46,1.68-.06,3.37,0,5-.19,2.94-.29,5.89-.31,8.83-.39,2.11-.07,4.22,0,6.31-.22,3.36-.32,6.73-.32,10.09-.44,2.21-.07,4.42-.12,6.63-.22s4.41-.26,6.62-.34q11.67-.45,23.34-.84l.63,0c3.35-.41,6.72-.35,10.09-.46,2.21-.08,4.42-.13,6.63-.22s4.62-.27,6.93-.36c2.63-.1,5.27,0,7.89-.25,3.36-.29,6.72-.33,10.09-.43,2-.06,4,0,6-.22,2.73-.26,5.46-.29,8.2-.38,2.31-.07,4.64,0,6.94-.23,2.94-.26,5.88-.32,8.83-.4,2.1-.06,4.21-.06,6.31-.19a43.68,43.68,0,0,0,6.27-.64A24.35,24.35,0,0,0,614.7,568a21.19,21.19,0,0,0,3.81-11.52c0-.84,0-1.68,0-2.52V445.43c0-.94,0-1.89-.06-2.83a18.52,18.52,0,0,0-2-7.58,22.69,22.69,0,0,0-14-12,23,23,0,0,0-8.72-1c-.73.05-1.47,0-2.21.05-12.2.29-24.41.18-36.61.59-13.47.44-26.94.27-40.41.65-14.2.41-28.41.32-42.61.73-7.36.21-14.73.18-22.1.25-.73,0-1.45-.06-2.24-.1a3.62,3.62,0,0,1,.09-1c.37-.87.8-1.71,1.2-2.57a1,1,0,0,0-.35-1.1,5.24,5.24,0,0,0-.53-.34l-7-3.6a5.12,5.12,0,0,0-.59-.21,1,1,0,0,0-1.09.42,37.05,37.05,0,0,1-2.3,3.76,1.46,1.46,0,0,1-1,.71,99.51,99.51,0,0,1-11.46-6,5.75,5.75,0,0,1,1-2.58c1.68-3.48,2-2.89-1.63-4.73a6,6,0,0,0-.57-.28,1,1,0,0,0-1.36.36c-.4.61-.58,1.37-1.25,1.78a83,83,0,0,1-9.36-4.48,5.69,5.69,0,0,1-.77-.61c.33-.76.63-1.42.9-2.09a.84.84,0,0,0-.38-1.08c-2.24-1.15-4.49-2.3-6.76-3.41a1.05,1.05,0,0,0-.84.21,1.7,1.7,0,0,0-.53.77,36.69,36.69,0,0,1-2.47,4,.84.84,0,0,1-1.1.31c-1.22-.61-2.45-1.22-3.66-1.86a1.12,1.12,0,0,1-.46-1.61c.17-.39.35-.76.54-1.14.51-1,1-2.07,1.52-3.12a4.63,4.63,0,0,0,.19-1.06,46.22,46.22,0,0,0-4.58-2.21,5,5,0,0,0-.79,1,33.16,33.16,0,0,1-2.45,4,1,1,0,0,1-1.35.41L380.87,393l-.26-.17a1.06,1.06,0,0,1-.47-1.35c.44-.95.88-1.91,1.35-2.84,1.3-2.56,1.5-2.46-1.38-3.89-2.08-1-4.14-2.08-6.2-3.13-1.5-.77-3-1.57-4.46-2.36-.46-.72-1.19-.59-1.87-.62a6.13,6.13,0,0,0-.82-.93,8.85,8.85,0,0,0-1.39-.75c-2.46-1.22-2.21-1.13-2.21-3.9a4.4,4.4,0,0,1,.19-1.55,8.49,8.49,0,0,0,.43-3.42q0-3.47,0-6.93a8.61,8.61,0,0,0-.45-3.73,2.54,2.54,0,0,1-.15-.92,19.14,19.14,0,0,0-.18-3.14c-.83-3.56-1.51-7.16-2.66-10.65-.76-2.29-1.64-4.53-2.52-6.77A22.63,22.63,0,0,0,354.94,330.74Zm161.63-29.09c-9.89,0-19.78,0-29.67,0a67.46,67.46,0,0,0-11.63.88,72.23,72.23,0,0,0-23.7,8.29A68.43,68.43,0,0,0,426.29,335a62.31,62.31,0,0,0-9.46,32.91q0,12.3,0,24.61c0,.63,0,1.26,0,1.89a8.84,8.84,0,0,0,2.63,6.23,10.67,10.67,0,0,0,12.2,2.3c3.88-1.77,6.07-4.74,6.15-9.1,0-.74,0-1.48,0-2.21q0-10.26,0-20.51a73.42,73.42,0,0,1,.34-7.56A42.24,42.24,0,0,1,440,354.6c4.5-13.42,13.44-22.88,26.17-28.79a48.73,48.73,0,0,1,21.12-4.52c2.1,0,4.21,0,6.31,0l18.94,0c11.37,0,22.73-.07,34.1-.07a50.4,50.4,0,0,1,7.85.57,47.93,47.93,0,0,1,17.65,6.5A45.68,45.68,0,0,1,589.5,347a44.27,44.27,0,0,1,4.7,19.77c.07,7.67,0,15.35,0,23,0,.84,0,1.68,0,2.52a8.6,8.6,0,0,0,2.38,5.69,10,10,0,0,0,11.27,2.5,9.83,9.83,0,0,0,5.73-6,10.79,10.79,0,0,0,.44-3.74c0-8.52,0-17,0-25.56a57.55,57.55,0,0,0-.65-8.48,61.26,61.26,0,0,0-5.54-17.68,64.5,64.5,0,0,0-16.32-21,68.7,68.7,0,0,0-45-16.4C536.57,301.69,526.57,301.65,516.57,301.65Z"/><path class="cls-9" d="M369.45,379.28c1.48.79,3,1.59,4.46,2.36,2.06,1.05,4.12,2.09,6.2,3.13,2.88,1.43,2.68,1.33,1.38,3.89-.47.93-.91,1.89-1.35,2.84a1.06,1.06,0,0,0,.47,1.35l.26.17,7.59,3.87a1,1,0,0,0,1.35-.41,33.16,33.16,0,0,0,2.45-4,5,5,0,0,1,.79-1,46.22,46.22,0,0,1,4.58,2.21,4.63,4.63,0,0,1-.19,1.06c-.48,1.05-1,2.08-1.52,3.12-.19.38-.37.75-.54,1.14a1.12,1.12,0,0,0,.46,1.61c1.21.64,2.44,1.25,3.66,1.86a.84.84,0,0,0,1.1-.31,36.69,36.69,0,0,0,2.47-4,1.7,1.7,0,0,1,.53-.77,1.05,1.05,0,0,1,.84-.21c2.27,1.11,4.52,2.26,6.76,3.41a.84.84,0,0,1,.38,1.08c-.27.67-.57,1.33-.9,2.09a5.69,5.69,0,0,0,.77.61,83,83,0,0,0,9.36,4.48c.67-.41.85-1.17,1.25-1.78a1,1,0,0,1,1.36-.36,6,6,0,0,1,.57.28c3.65,1.84,3.31,1.25,1.63,4.73a5.75,5.75,0,0,0-1,2.58,99.51,99.51,0,0,0,11.46,6,1.46,1.46,0,0,0,1-.71,37.05,37.05,0,0,0,2.3-3.76,1,1,0,0,1,1.09-.42,5.12,5.12,0,0,1,.59.21l7,3.6a5.24,5.24,0,0,1,.53.34,1,1,0,0,1,.35,1.1c-.4.86-.83,1.7-1.2,2.57a3.62,3.62,0,0,0-.09,1c.79,0,1.51.11,2.24.1,7.37-.07,14.74,0,22.1-.25,14.2-.41,28.41-.32,42.61-.73,13.47-.38,26.94-.21,40.41-.65,12.2-.41,24.41-.3,36.61-.59.74,0,1.48,0,2.21-.05a23,23,0,0,1,8.72,1,22.69,22.69,0,0,1,14,12,18.52,18.52,0,0,1,2,7.58c0,.94.06,1.89.06,2.83V554c0,.84,0,1.68,0,2.52A21.19,21.19,0,0,1,614.7,568a24.35,24.35,0,0,1-15.85,10.58,43.68,43.68,0,0,1-6.27.64c-2.1.13-4.21.13-6.31.19-2.95.08-5.89.14-8.83.4-2.3.2-4.63.16-6.94.23-2.74.09-5.47.12-8.2.38-2,.19-4,.16-6,.22-3.37.1-6.73.14-10.09.43-2.62.22-5.26.15-7.89.25-2.31.09-4.62.26-6.93.36s-4.42.14-6.63.22c-3.37.11-6.74,0-10.09.46l-.63,0q-11.67.41-23.34.84c-2.21.08-4.41.25-6.62.34s-4.42.15-6.63.22c-3.36.12-6.73.12-10.09.44-2.09.2-4.2.15-6.31.22-2.94.08-5.89.1-8.83.39-1.67.17-3.36.13-5,.19-3.68.13-7.37.12-11,.46-2.2.2-4.42.13-6.63.22-5,.19-10.09.41-15.13.61-1.16,0-2.32.08-3.48,0a23.9,23.9,0,0,1-17.63-7.9,20.48,20.48,0,0,1-5.64-14c0-1,0-1.9,0-2.84q0-55.23,0-110.46a33.46,33.46,0,0,1,.79-8.76l.58-.75c.33-.43.71-.59,1-.44.58.27,1.15.53,1.71.81l67.33,34c.76.38,1.5.78,2.26,1.13a6.87,6.87,0,0,0,6.37-.16c.28-.15.56-.3.83-.46l10.85-6.44a6.14,6.14,0,0,0,2.08-1.91,4.91,4.91,0,0,0,.41-1.15l1.79-2.58a5.63,5.63,0,0,0,.49-.81c.72-1.6.53-2.44-.74-3.29a31.24,31.24,0,0,0-3.29-1.86,4.65,4.65,0,0,1-1.78-1.27,7.5,7.5,0,0,0-2.44-2c-2.72-1.58-5.44-3.18-8.21-4.71-9.95-5.48-20.07-10.64-30.22-15.74C427,429.56,416.4,424.31,405.91,419c-8.62-4.4-17.23-8.81-25.63-13.62A106.66,106.66,0,0,1,370.1,399c-1.09-.81-2.11-1.73-3.13-2.64a5,5,0,0,1-1.4-2.42,17,17,0,0,1-.68-5.29c0-.93.47-1.84.55-2.77a9.8,9.8,0,0,1,1-3.29c.47-1,.77-2.17,1.14-3.26A5.11,5.11,0,0,1,369.45,379.28ZM508.39,550.44v-.08c1.69-.05,3.37-.06,5.05-.14,1.26-.06,2.52-.17,3.77-.35a6.14,6.14,0,0,0,5.39-7.45c-.48-2.69-1-5.38-1.48-8.06-1.18-6.62-2.31-13.25-3.56-19.86-.71-3.74.62-6.57,3.47-8.85.66-.52,1.41-.93,2.11-1.4a23.36,23.36,0,0,0,6.05-5.93,21.77,21.77,0,0,0,3.65-17.11,20.22,20.22,0,0,0-7.6-12.37,22.42,22.42,0,0,0-14-5.08A23.87,23.87,0,0,0,489,476.07,21.17,21.17,0,0,0,486.55,491a20.35,20.35,0,0,0,8.33,13,36.62,36.62,0,0,0,3.18,2,8.13,8.13,0,0,1,3.72,4.53,9.36,9.36,0,0,1,.17,4.67c-.17,1.15-.38,2.28-.59,3.42-1.39,7.65-2.79,15.3-4.14,23a22.6,22.6,0,0,0-.29,3.76,4.52,4.52,0,0,0,1.51,3.37,5.68,5.68,0,0,0,3.95,1.72C504.39,550.43,506.39,550.44,508.39,550.44Z"/><path class="cls-25" d="M288.62,307.94l5.64,0A54.14,54.14,0,0,1,315,312.28a59.29,59.29,0,0,1,16.81,10.78c.31.27.65.51,1,.76.4.48.78,1,1.21,1.44a56.37,56.37,0,0,1,14.75,29.11,43.46,43.46,0,0,1,.64,5.31c.06.84.14,1.68.21,2.52a18,18,0,0,1,.12,2.2,68.76,68.76,0,0,1-2,14.33,56.37,56.37,0,0,1-41.93,40.42A57.8,57.8,0,0,1,287,420.24a53.79,53.79,0,0,1-16.38-4.41,55.79,55.79,0,0,1-20.74-15.61A55.2,55.2,0,0,1,238,375.46a56.69,56.69,0,0,1-1.12-14.11,53.86,53.86,0,0,1,1.43-10A56.52,56.52,0,0,1,276,310.6a66.08,66.08,0,0,1,11.7-2.5C288,308.06,288.31,308,288.62,307.94Zm-11.93,50a4.13,4.13,0,0,0,.67-.65,13.64,13.64,0,0,0,1.48-10.95c-1.52-5.87-5.62-9.33-11.49-10.34A13.64,13.64,0,0,0,253,343a2.47,2.47,0,0,0-.12.92c-.17.12-.4.21-.49.38a6.76,6.76,0,0,0-1,2.94c-.06,1.88,0,3.76,0,5.64a13.49,13.49,0,0,0,5.57,8.74,19.66,19.66,0,0,0,3.65,1.8,8.64,8.64,0,0,0,2.7.75c1.76.12,3.55.06,5.32,0a1.47,1.47,0,0,0,1.07-.58c.82-.41,1.67-.78,2.45-1.25C274,361.24,275.77,360,276.69,358Z"/><path class="cls-21" d="M481.87,467.08a4.91,4.91,0,0,1-.41,1.15,6.14,6.14,0,0,1-2.08,1.91l-10.85,6.44c-.27.16-.55.31-.83.46a6.87,6.87,0,0,1-6.37.16c-.76-.35-1.5-.75-2.26-1.13l-67.33-34c-.56-.28-1.13-.54-1.71-.81-.33-.15-.71,0-1,.44l-.58.75c0-.32,0-.63-.06-.95a1.59,1.59,0,0,0-.78-1.29c-.64-.37-1.3-.7-1.95-1-3.39-1.69-6.78-3.37-10.16-5.08-1.12-.57-2.2-1.23-3.3-1.84a7.18,7.18,0,0,0-1.13-.52,9.21,9.21,0,0,1-2.53-1.26,16.33,16.33,0,0,0-1.9-1.12c-1.93-1-4-1.8-5.91-2.91s-3.74-1.92-5.63-2.85a4.22,4.22,0,0,0-2.07-.69,10.85,10.85,0,0,0-2.6-1.74c-2.33-1.19-4.64-2.44-7-3.61a22.69,22.69,0,0,0-2.34-.91,4,4,0,0,1,.32-1.19,9.78,9.78,0,0,1,1.27-1.39,1.68,1.68,0,0,1,2-.37c.57.27,1.14.56,1.7.84l24.26,12.12c.75.38,1.47.82,2.2,1.22a15.15,15.15,0,0,0,1.39.71,24.68,24.68,0,0,1,5,2.55c1,.7,2.36.86,3.31,1.74a10.37,10.37,0,0,1,3.63,1.83,22.18,22.18,0,0,0,2.52,1.3L440.63,462a21.59,21.59,0,0,1,4.12,2.3c2.64,1,4.87,2.9,7.65,3.62a33.2,33.2,0,0,0,5,2.73c1.78.9,3.58,1.77,5.35,2.7a6.19,6.19,0,0,0,3.34.74c.52,0,1.05,0,1.57,0a3.7,3.7,0,0,0,1.82-.43c.83-.45,1.68-.87,2.5-1.35,2-1.16,3.88-2.48,6-3.5a11.16,11.16,0,0,0,1.88-1.13A3.2,3.2,0,0,1,481.87,467.08Z"/><path class="cls-21" d="M369.45,379.28a5.11,5.11,0,0,0-1.87.05v-.67C368.26,378.69,369,378.56,369.45,379.28Z"/><path class="cls-1" d="M259.56,440.55l-1.89,0c-.69,0-1.42-.11-1.9.59l-3.14.06-4.44,0h0a4,4,0,0,1,.68-.62,10.89,10.89,0,0,1,1.4-.72,70.45,70.45,0,0,0,10.79-6.37,2,2,0,0,0,1.06-1.8,25.33,25.33,0,0,1,4.5,2,1.16,1.16,0,0,1,.6,1c0,.71.06,1.43.07,2.15a1.2,1.2,0,0,0,1.13,1.23c-.25.18-.49.49-.74.5a9.52,9.52,0,0,0-2.65.71,11,11,0,0,1-4.2.7A1.28,1.28,0,0,0,259.56,440.55Z"/><path class="cls-18" d="M248.19,441.22a1.16,1.16,0,0,1-.13.24c-.21,0-.16-.15.13-.25Z"/><path class="cls-1" d="M240.61,416.63a.69.69,0,0,1,.67.57Z"/><path class="cls-16" d="M168.63,371.14a1.46,1.46,0,0,1-1.28-.75c-.38-.74-.84-1.45-1.15-2.22a35.19,35.19,0,0,1-2-5.24l2.52,1.11a12.41,12.41,0,0,0,5.6,1.46,2,2,0,0,1,1.4.53c-.31,0-.61.09-.92.11a1.94,1.94,0,0,0-1.51.92Q170,369.1,168.63,371.14Z"/><path class="cls-16" d="M175.55,366.05c.52-.55,1.24-.51,1.9-.63C177,366.29,176.28,366.13,175.55,366.05Z"/><path class="cls-13" d="M49.91,683c1.05,0,2.1-.14,3.14-.14l26.48,0,9.14.05c.41,0,.83,0,1.25.07a1,1,0,0,1,.85.79c0,.52.08,1.05.08,1.57,0,2.52,0,5-.1,7.56-.22,4-.29,8-.34,11.95a4.44,4.44,0,0,1-.1.62,1,1,0,0,1-.88.75c-.62,0-1.25.06-1.88.06l-52.95-.05c-.52,0-1.05,0-1.57,0s-.61-.31-.72-1.16a4.82,4.82,0,0,0,2.73.61c4.1,0,8.2,0,12.31,0,.52,0,1-.06,1.57-.11a1,1,0,0,0,.84-.81c.06-.94.13-1.88.13-2.82Q49.92,692.46,49.91,683Z"/><path class="cls-23" d="M32.24,725.21a1.16,1.16,0,0,1,1.07-.51h6.93c2.32,0,4.63,0,6.94,0l39.74.07c3.35,0,3.36,0,3.33,3.28,0,4.3-.07,8.61-.15,12.92,0,2.09-.19,4.19-.31,6.28a1.17,1.17,0,0,1-1.25,1.13c-.74,0-1.47,0-2.21,0l-14.51-.05-33.11-.07a5.2,5.2,0,0,1-2.78-.33c1.37,0,2.73-.07,4.09-.07,5.35,0,10.7,0,16,0,1.72,0,2-.31,2-2,0-.21,0-.42,0-.62q0-8.65,0-17.29c0-.42,0-.84,0-1.26,0-.92-.48-1.41-1.31-1.44s-1.88,0-2.83,0Z"/><path class="cls-22" d="M32.24,725.21l21.7,0c1,0,1.89,0,2.83,0s1.26.52,1.31,1.44c0,.42,0,.84,0,1.26q0,8.64,0,17.29c0,.2,0,.41,0,.62,0,1.7-.32,2-2,2-5.34,0-10.69,0-16,0-1.36,0-2.72.05-4.09.07-1.15,0-2.3,0-3.45,0a1,1,0,0,1-.8-.83c0-.31-.06-.62-.05-.94,0-5.34.06-10.68.15-16A26.07,26.07,0,0,1,32.24,725.21Z"/><path class="cls-3" d="M49.91,683q0,9.46,0,18.93c0,.94-.07,1.88-.13,2.82a1,1,0,0,1-.84.81c-.53.05-1.05.11-1.57.11-4.11,0-8.21,0-12.31,0a4.82,4.82,0,0,1-2.73-.61c0-1.46-.11-2.93-.1-4.39,0-5,.08-10,.13-15.08,0-.62,0-1.25.08-1.87a1,1,0,0,1,.85-.8c.1,0,.21,0,.31,0l16,.07A1.54,1.54,0,0,1,49.91,683Z"/><path class="cls-3" d="M114.34,725.21q0,9.4,0,18.79c0,4.16.25,4-3.87,3.94H97.29c-.15-.26-.44-.53-.42-.78.39-6.49.22-13,.34-19.49,0-.21,0-.42,0-.62.06-1.78.24-2,2-2,4.72,0,9.44,0,14.16,0C113.72,725.1,114,725.17,114.34,725.21Z"/><path class="cls-5" d="M98.41,656.27l-.12.73C98.14,656.71,98.21,656.27,98.41,656.27Z"/><path class="cls-13" d="M235.57,554.18c0,.21,0,.42,0,.63C235.19,554.51,235.19,554.51,235.57,554.18Z"/><path class="cls-25" d="M255.77,441.18c.48-.7,1.21-.6,1.9-.59C257.2,441.31,256.47,441.19,255.77,441.18Z"/><path class="cls-25" d="M259.56,440.55a1.28,1.28,0,0,1,1.27-.58A1.28,1.28,0,0,1,259.56,440.55Z"/><path class="cls-16" d="M155.37,706.31l.48-.64C155.92,706.05,155.77,706.28,155.37,706.31Z"/><path class="cls-18" d="M516.57,301.65c10,0,20,0,30,0a68.7,68.7,0,0,1,45,16.4,64.5,64.5,0,0,1,16.32,21,61.26,61.26,0,0,1,5.54,17.68,57.55,57.55,0,0,1,.65,8.48c0,8.52,0,17,0,25.56a10.79,10.79,0,0,1-.44,3.74,9.83,9.83,0,0,1-5.73,6,10,10,0,0,1-11.27-2.5,8.6,8.6,0,0,1-2.38-5.69c0-.84,0-1.68,0-2.52,0-7.68,0-15.36,0-23A44.27,44.27,0,0,0,589.5,347a45.68,45.68,0,0,0-17.35-18.73,47.93,47.93,0,0,0-17.65-6.5,50.4,50.4,0,0,0-7.85-.57c-11.37,0-22.73.05-34.1.07l-18.94,0c-2.1,0-4.21,0-6.31,0a48.73,48.73,0,0,0-21.12,4.52c-12.73,5.91-21.67,15.37-26.17,28.79a42.24,42.24,0,0,0-1.86,8.92,73.42,73.42,0,0,0-.34,7.56q0,10.26,0,20.51c0,.73,0,1.47,0,2.21-.08,4.36-2.27,7.33-6.15,9.1a10.67,10.67,0,0,1-12.2-2.3,8.84,8.84,0,0,1-2.63-6.23c0-.63,0-1.26,0-1.89q0-12.32,0-24.61A62.31,62.31,0,0,1,426.29,335a68.43,68.43,0,0,1,25.28-24.15,72.23,72.23,0,0,1,23.7-8.29,67.46,67.46,0,0,1,11.63-.88C496.79,301.68,506.68,301.65,516.57,301.65Z"/><path class="cls-8" d="M508.39,550.44c-2,0-4,0-6,0a5.68,5.68,0,0,1-3.95-1.72,4.52,4.52,0,0,1-1.51-3.37,22.6,22.6,0,0,1,.29-3.76c1.35-7.65,2.75-15.3,4.14-23,.21-1.14.42-2.27.59-3.42a9.36,9.36,0,0,0-.17-4.67,8.13,8.13,0,0,0-3.72-4.53,36.62,36.62,0,0,1-3.18-2,20.35,20.35,0,0,1-8.33-13A21.17,21.17,0,0,1,489,476.07a23.87,23.87,0,0,1,22.31-12.31,22.42,22.42,0,0,1,14,5.08,20.22,20.22,0,0,1,7.6,12.37,21.77,21.77,0,0,1-3.65,17.11,23.36,23.36,0,0,1-6.05,5.93c-.7.47-1.45.88-2.11,1.4-2.85,2.28-4.18,5.11-3.47,8.85,1.25,6.61,2.38,13.24,3.56,19.86.49,2.68,1,5.37,1.48,8.06a6.14,6.14,0,0,1-5.39,7.45c-1.25.18-2.51.29-3.77.35-1.68.08-3.36.09-5.05.14Z"/><path class="cls-1" d="M269.69,363.59a1.47,1.47,0,0,1-1.07.58c-1.77,0-3.56.08-5.32,0a8.64,8.64,0,0,1-2.7-.75,19.66,19.66,0,0,1-3.65-1.8,13.49,13.49,0,0,1-5.57-8.74c0-1.88,0-3.76,0-5.64a6.76,6.76,0,0,1,1-2.94c.09-.17.32-.26.48-.38a17.26,17.26,0,0,1,3.11-2.54,14.28,14.28,0,0,1,8-1.82,5.87,5.87,0,0,1,3.71,1.33q0,10.44,0,20.89a5.09,5.09,0,0,0,.13,1.23.71.71,0,0,0,.66.55C268.86,363.56,269.28,363.57,269.69,363.59Z"/><path class="cls-7" d="M269.69,363.59c-.41,0-.83,0-1.24-.07a.71.71,0,0,1-.66-.55,5.09,5.09,0,0,1-.13-1.23q0-10.46,0-20.89a8.13,8.13,0,0,1,4.18,1.94,12.52,12.52,0,0,1,3.65,4.61,27.65,27.65,0,0,1,1.4,4.11,8.09,8.09,0,0,1,0,4.6,11,11,0,0,0-.22,1.84c-.92,2.08-2.69,3.29-4.55,4.39C271.36,362.81,270.51,363.18,269.69,363.59Z"/><path class="cls-12" d="M276.69,358a11,11,0,0,1,.22-1.84,8.09,8.09,0,0,0,0-4.6,27.65,27.65,0,0,0-1.4-4.11,12.52,12.52,0,0,0-3.65-4.61,8.13,8.13,0,0,0-4.18-1.94,5.87,5.87,0,0,0-3.71-1.33,14.28,14.28,0,0,0-8,1.82,17.26,17.26,0,0,0-3.11,2.54A2.7,2.7,0,0,1,253,343,13.64,13.64,0,0,1,267.35,336c5.87,1,10,4.47,11.49,10.34a13.64,13.64,0,0,1-1.48,10.95A4.13,4.13,0,0,1,276.69,358Z"/></g></g></svg>